<?xml version="1.0" encoding="UTF-8" ?><svg xmlns="http://www.w3.org/2000/svg" version="1.1" viewBox="0 0 520.000000 520.000000" stroke-width="2"><rect stroke="none" width="100%" height="100%" fill="#1e1e1e"/><g font-size="10" text-anchor="start" stroke-width="1" stroke ="#3c3c3c" fill="#3c3c3c"><circle cx="10.000000" cy="11.000000" r="2"/><circle cx="10.000000" cy="12.000000" r="2"/><circle cx="10.000000" cy="13.000000" r="2"/><circle cx="10.000000" cy="14.000000" r="2"/><circle cx="10.000000" cy="15.000000" r="2"/><circle cx="10.000000" cy="16.000000" r="2"/><circle cx="10.000000" cy="17.000000" r="2"/><circle cx="10.000000" cy="18.000000" r="2"/><circle cx="10.000000" cy="19.000000" r="2"/><circle cx="10.000000" cy="20.000000" r="2"/><circle cx="10.000000" cy="21.000000" r="2"/><circle cx="10.000000" cy="22.000000" r="2"/><circle cx="10.000000" cy="23.000000" r="2"/><circle cx="10.000000" cy="24.000000" r="2"/><circle cx="10.000000" cy="25.000000" r="2"/><circle cx="10.000000" cy="26.000000" r="2"/><circle cx="10.000000" cy="27.000000" r="2"/><circle cx="10.000000" cy="28.000000" r="2"/><circle cx="10.000000" cy="29.000000" r="2"/><circle cx="10.000000" cy="30.000000" r="2"/><circle cx="10.000000" cy="31.000000" r="2"/><circle cx="10.000000" cy="32.000000" r="2"/><circle cx="10.000000" cy="33.000000" r="2"/><circle cx="10.000000" cy="34.000000" r="2"/><circle cx="10.000000" cy="35.000000" r="2"/><circle cx="10.000000" cy="36.000000" r="2"/><circle cx="10.000000" cy="37.000000" r="2"/><circle cx="10.000000" cy="38.000000" r="2"/><circle cx="10.000000" cy="39.000000" r="2"/><circle cx="10.000000" cy="40.000000" r="2"/><circle cx="10.000000" cy="41.000000" r="2"/><circle cx="10.000000" cy="42.000000" r="2"/><circle cx="10.000000" cy="43.000000" r="2"/><circle cx="10.000000" cy="44.000000" r="2"/><circle cx="10.000000" cy="45.000000" r="2"/><circle cx="10.000000" cy="46.000000" r="2"/><circle cx="10.000000" cy="47.000000" r="2"/><circle cx="10.000000" cy="48.000000" r="2"/><circle cx="10.000000" cy="49.000000" r="2"/><circle cx="10.000000" cy="50.000000" r="2"/><circle cx="10.000000" cy="51.000000" r="2"/><circle cx="10.000000" cy="52.000000" r="2"/><circle cx="10.000000" cy="53.000000" r="2"/><circle cx="10.000000" cy="54.000000" r="2"/><circle cx="10.000000" cy="55.000000" r="2"/><circle cx="10.000000" cy="56.000000" r="2"/><circle cx="10.000000" cy="57.000000" r="2"/><circle cx="10.000000" cy="58.000000" r="2"/><circle cx="10.000000" cy="59.000000" r="2"/><circle cx="10.000000" cy="60.000000" r="2"/><circle cx="10.000000" cy="61.000000" r="2"/><circle cx="10.000000" cy="62.000000" r="2"/><circle cx="10.000000" cy="63.000000" r="2"/><circle cx="10.000000" cy="64.000000" r="2"/><circle cx="10.000000" cy="65.000000" r="2"/><circle cx="10.000000" cy="66.000000" r="2"/><circle cx="10.000000" cy="67.000000" r="2"/><circle cx="10.000000" cy="68.000000" r="2"/><circle cx="10.000000" cy="69.000000" r="2"/><circle cx="10.000000" cy="70.000000" r="2"/><circle cx="10.000000" cy="71.000000" r="2"/><circle cx="10.000000" cy="72.000000" r="2"/><circle cx="10.000000" cy="73.000000" r="2"/><circle cx="10.000000" cy="74.000000" r="2"/><circle cx="10.000000" cy="75.000000" r="2"/><circle cx="10.000000" cy="76.000000" r="2"/><circle cx="10.000000" cy="77.000000" r="2"/><circle cx="10.000000" cy="78.000000" r="2"/><circle cx="10.000000" cy="79.000000" r="2"/><circle cx="10.000000" cy="80.000000" r="2"/><circle cx="10.000000" cy="81.000000" r="2"/><circle cx="10.000000" cy="82.000000" r="2"/><circle cx="10.000000" cy="83.000000" r="2"/><circle cx="10.000000" cy="84.000000" r="2"/><circle cx="10.000000" cy="85.000000" r="2"/><circle cx="10.000000" cy="86.000000" r="2"/><circle cx="10.000000" cy="87.000000" r="2"/><circle cx="10.000000" cy="88.000000" r="2"/><circle cx="10.000000" cy="89.000000" r="2"/><circle cx="10.000000" cy="90.000000" r="2"/><circle cx="10.000000" cy="91.000000" r="2"/><circle cx="10.000000" cy="92.000000" r="2"/><circle cx="10.000000" cy="93.000000" r="2"/><circle cx="10.000000" cy="94.000000" r="2"/><circle cx="10.000000" cy="95.000000" r="2"/><circle cx="10.000000" cy="96.000000" r="2"/><circle cx="10.000000" cy="97.000000" r="2"/><circle cx="10.000000" cy="98.000000" r="2"/><circle cx="10.000000" cy="99.000000" r="2"/><circle cx="10.000000" cy="100.000000" r="2"/><circle cx="10.000000" cy="101.000000" r="2"/><circle cx="10.000000" cy="102.000000" r="2"/><circle cx="10.000000" cy="103.000000" r="2"/><circle cx="10.000000" cy="104.000000" r="2"/><circle cx="10.000000" cy="105.000000" r="2"/><circle cx="10.000000" cy="106.000000" r="2"/><circle cx="10.000000" cy="107.000000" r="2"/><circle cx="10.000000" cy="108.000000" r="2"/><circle cx="10.000000" cy="109.000000" r="2"/><circle cx="10.000000" cy="110.000000" r="2"/><circle cx="10.000000" cy="111.000000" r="2"/><circle cx="10.000000" cy="112.000000" r="2"/><circle cx="10.000000" cy="113.000000" r="2"/><circle cx="10.000000" cy="114.000000" r="2"/><circle cx="10.000000" cy="115.000000" r="2"/><circle cx="10.000000" cy="116.000000" r="2"/><circle cx="10.000000" cy="117.000000" r="2"/><circle cx="10.000000" cy="118.000000" r="2"/><circle cx="10.000000" cy="119.000000" r="2"/><circle cx="10.000000" cy="120.000000" r="2"/><circle cx="10.000000" cy="121.000000" r="2"/><circle cx="10.000000" cy="122.000000" r="2"/><circle cx="10.000000" cy="123.000000" r="2"/><circle cx="10.000000" cy="124.000000" r="2"/><circle cx="10.000000" cy="125.000000" r="2"/><circle cx="10.000000" cy="126.000000" r="2"/><circle cx="10.000000" cy="127.000000" r="2"/><circle cx="10.000000" cy="128.000000" r="2"/><circle cx="10.000000" cy="129.000000" r="2"/><circle cx="10.000000" cy="130.000000" r="2"/><circle cx="10.000000" cy="131.000000" r="2"/><circle cx="10.000000" cy="132.000000" r="2"/><circle cx="10.000000" cy="133.000000" r="2"/><circle cx="10.000000" cy="134.000000" r="2"/><circle cx="10.000000" cy="135.000000" r="2"/><circle cx="10.000000" cy="136.000000" r="2"/><circle cx="10.000000" cy="137.000000" r="2"/><circle cx="10.000000" cy="138.000000" r="2"/><circle cx="10.000000" cy="139.000000" r="2"/><circle cx="10.000000" cy="140.000000" r="2"/><circle cx="10.000000" cy="141.000000" r="2"/><circle cx="10.000000" cy="142.000000" r="2"/><circle cx="10.000000" cy="143.000000" r="2"/><circle cx="10.000000" cy="144.000000" r="2"/><circle cx="10.000000" cy="145.000000" r="2"/><circle cx="10.000000" cy="146.000000" r="2"/><circle cx="10.000000" cy="147.000000" r="2"/><circle cx="10.000000" cy="148.000000" r="2"/><circle cx="10.000000" cy="149.000000" r="2"/><circle cx="10.000000" cy="150.000000" r="2"/><circle cx="10.000000" cy="151.000000" r="2"/><circle cx="10.000000" cy="152.000000" r="2"/><circle cx="10.000000" cy="153.000000" r="2"/><circle cx="10.000000" cy="154.000000" r="2"/><circle cx="10.000000" cy="155.000000" r="2"/><circle cx="10.000000" cy="156.000000" r="2"/><circle cx="10.000000" cy="157.000000" r="2"/><circle cx="10.000000" cy="158.000000" r="2"/><circle cx="10.000000" cy="159.000000" r="2"/><circle cx="10.000000" cy="160.000000" r="2"/><circle cx="10.000000" cy="161.000000" r="2"/><circle cx="10.000000" cy="162.000000" r="2"/><circle cx="10.000000" cy="163.000000" r="2"/><circle cx="10.000000" cy="164.000000" r="2"/><circle cx="10.000000" cy="165.000000" r="2"/><circle cx="10.000000" cy="166.000000" r="2"/><circle cx="10.000000" cy="167.000000" r="2"/><circle cx="10.000000" cy="168.000000" r="2"/><circle cx="10.000000" cy="169.000000" r="2"/><circle cx="10.000000" cy="170.000000" r="2"/><circle cx="10.000000" cy="171.000000" r="2"/><circle cx="10.000000" cy="172.000000" r="2"/><circle cx="10.000000" cy="173.000000" r="2"/><circle cx="10.000000" cy="174.000000" r="2"/><circle cx="10.000000" cy="175.000000" r="2"/><circle cx="10.000000" cy="176.000000" r="2"/><circle cx="10.000000" cy="177.000000" r="2"/><circle cx="10.000000" cy="178.000000" r="2"/><circle cx="10.000000" cy="179.000000" r="2"/><circle cx="10.000000" cy="180.000000" r="2"/><circle cx="10.000000" cy="181.000000" r="2"/><circle cx="10.000000" cy="182.000000" r="2"/><circle cx="10.000000" cy="183.000000" r="2"/><circle cx="10.000000" cy="184.000000" r="2"/><circle cx="10.000000" cy="185.000000" r="2"/><circle cx="10.000000" cy="186.000000" r="2"/><circle cx="10.000000" cy="187.000000" r="2"/><circle cx="10.000000" cy="188.000000" r="2"/><circle cx="10.000000" cy="189.000000" r="2"/><circle cx="10.000000" cy="190.000000" r="2"/><circle cx="10.000000" cy="191.000000" r="2"/><circle cx="10.000000" cy="192.000000" r="2"/><circle cx="10.000000" cy="193.000000" r="2"/><circle cx="10.000000" cy="194.000000" r="2"/><circle cx="10.000000" cy="195.000000" r="2"/><circle cx="10.000000" cy="196.000000" r="2"/><circle cx="10.000000" cy="197.000000" r="2"/><circle cx="10.000000" cy="198.000000" r="2"/><circle cx="10.000000" cy="199.000000" r="2"/><circle cx="10.000000" cy="200.000000" r="2"/><circle cx="10.000000" cy="201.000000" r="2"/><circle cx="10.000000" cy="202.000000" r="2"/><circle cx="10.000000" cy="203.000000" r="2"/><circle cx="10.000000" cy="204.000000" r="2"/><circle cx="10.000000" cy="205.000000" r="2"/><circle cx="10.000000" cy="206.000000" r="2"/><circle cx="10.000000" cy="207.000000" r="2"/><circle cx="10.000000" cy="208.000000" r="2"/><circle cx="10.000000" cy="209.000000" r="2"/><circle cx="10.000000" cy="210.000000" r="2"/><circle cx="10.000000" cy="211.000000" r="2"/><circle cx="10.000000" cy="212.000000" r="2"/><circle cx="10.000000" cy="213.000000" r="2"/><circle cx="10.000000" cy="214.000000" r="2"/><circle cx="10.000000" cy="215.000000" r="2"/><circle cx="10.000000" cy="216.000000" r="2"/><circle cx="10.000000" cy="217.000000" r="2"/><circle cx="10.000000" cy="218.000000" r="2"/><circle cx="10.000000" cy="219.000000" r="2"/><circle cx="10.000000" cy="220.000000" r="2"/><circle cx="10.000000" cy="221.000000" r="2"/><circle cx="10.000000" cy="222.000000" r="2"/><circle cx="10.000000" cy="223.000000" r="2"/><circle cx="10.000000" cy="224.000000" r="2"/><circle cx="10.000000" cy="225.000000" r="2"/><circle cx="10.000000" cy="226.000000" r="2"/><circle cx="10.000000" cy="227.000000" r="2"/><circle cx="10.000000" cy="228.000000" r="2"/><circle cx="10.000000" cy="229.000000" r="2"/><circle cx="10.000000" cy="230.000000" r="2"/><circle cx="10.000000" cy="231.000000" r="2"/><circle cx="10.000000" cy="232.000000" r="2"/><circle cx="10.000000" cy="233.000000" r="2"/><circle cx="10.000000" cy="234.000000" r="2"/><circle cx="10.000000" cy="235.000000" r="2"/><circle cx="10.000000" cy="236.000000" r="2"/><circle cx="10.000000" cy="237.000000" r="2"/><circle cx="10.000000" cy="238.000000" r="2"/><circle cx="10.000000" cy="239.000000" r="2"/><circle cx="10.000000" cy="240.000000" r="2"/><circle cx="10.000000" cy="241.000000" r="2"/><circle cx="10.000000" cy="242.000000" r="2"/><circle cx="10.000000" cy="243.000000" r="2"/><circle cx="10.000000" cy="244.000000" r="2"/><circle cx="10.000000" cy="245.000000" r="2"/><circle cx="10.000000" cy="246.000000" r="2"/><circle cx="10.000000" cy="247.000000" r="2"/><circle cx="10.000000" cy="248.000000" r="2"/><circle cx="10.000000" cy="249.000000" r="2"/><circle cx="10.000000" cy="250.000000" r="2"/><circle cx="10.000000" cy="251.000000" r="2"/><circle cx="10.000000" cy="252.000000" r="2"/><circle cx="10.000000" cy="253.000000" r="2"/><circle cx="10.000000" cy="254.000000" r="2"/><circle cx="10.000000" cy="255.000000" r="2"/><circle cx="10.000000" cy="256.000000" r="2"/><circle cx="10.000000" cy="257.000000" r="2"/><circle cx="10.000000" cy="258.000000" r="2"/><circle cx="10.000000" cy="259.000000" r="2"/><circle cx="10.000000" cy="260.000000" r="2"/><circle cx="10.000000" cy="261.000000" r="2"/><circle cx="10.000000" cy="262.000000" r="2"/><circle cx="10.000000" cy="263.000000" r="2"/><circle cx="10.000000" cy="264.000000" r="2"/><circle cx="10.000000" cy="265.000000" r="2"/><circle cx="10.000000" cy="266.000000" r="2"/><circle cx="10.000000" cy="267.000000" r="2"/><circle cx="10.000000" cy="268.000000" r="2"/><circle cx="10.000000" cy="269.000000" r="2"/></g><polyline fill="none" points="10.000000, 10.000000 10.000000, 270.000000 " stroke = "#3c3c3c"/><polyline fill="none" points="10.000000, 270.000000 510.000000, 270.000000 " stroke = "#3c3c3c"/><rect fill="#9049f1" x="67.539688" y="10.000000" width="27.777779" height="260.000000" stroke="#9049f1" fill-opacity=" 0.600000"/><rect fill="#9049f1" x="40.000000" y="300.000000" width=" 5.000000" height=" 5.000000" stroke="#9049f1" fill-opacity=" 0.600000"/><text x="60.000000" y="300.000000">one : 500.000000</text><rect fill="#f1bbe9" x="138.968262" y="62.000000" width="27.777779" height="208.000000" stroke="#f1bbe9" fill-opacity=" 0.600000"/><rect fill="#f1bbe9" x="40.000000" y="340.000000" width=" 5.000000" height=" 5.000000" stroke="#f1bbe9" fill-opacity=" 0.600000"/><text x="60.000000" y="340.000000">two : 400.000000</text><rect fill="#ebb3a6" x="210.396835" y="114.000000" width="27.777779" height="156.000000" stroke="#ebb3a6" fill-opacity=" 0.600000"/><rect fill="#ebb3a6" x="40.000000" y="380.000000" width=" 5.000000" height=" 5.000000" stroke="#ebb3a6" fill-opacity=" 0.600000"/><text x="60.000000" y="380.000000">three : 300.000000</text><rect fill="#db3c87" x="281.825409" y="166.000000" width="27.777779" height="104.000000" stroke="#db3c87" fill-opacity=" 0.600000"/><rect fill="#db3c87" x="40.000000" y="420.000000" width=" 5.000000" height=" 5.000000" stroke="#db3c87" fill-opacity=" 0.600000"/><text x="60.000000" y="420.000000">one : 200.000000</text><rect fill="#0c3e99" x="353.253998" y="218.000000" width="27.777779" height="52.000000" stroke="#0c3e99" fill-opacity=" 0.600000"/><rect fill="#0c3e99" x="40.000000" y="460.000000" width=" 5.000000" height=" 5.000000" stroke="#0c3e99" fill-opacity=" 0.600000"/><text x="60.000000" y="460.000000">two : 100.000000</text><rect fill="#245e0d" x="424.682587" y="218.000000" width="27.777779" height="52.000000" stroke="#245e0d" fill-opacity=" 0.600000"/><rect fill="#245e0d" x="40.000000" y="500.000000" width=" 5.000000" height=" 5.000000" stroke="#245e0d" fill-opacity=" 0.600000"/><text x="60.000000" y="500.000000">three : 100.000000</text></svg>