<?xml version="1.0" encoding="UTF-8" ?><svg xmlns="http://www.w3.org/2000/svg" version="1.1" viewBox="0 0 660.000000 380.000000" stroke-width="1"><line stroke = "red" x1="10.000000" y1="10.000000" x2="10.000000" y2="370.000000" stroke-opacity="0.5"/><text x="10.000000" y="190.000000">   -10.00</text><line stroke = "red" x1="74.000000" y1="10.000000" x2="74.000000" y2="370.000000" stroke-opacity="0.5"/><text x="74.000000" y="190.000000">    -4.00</text><line stroke = "red" x1="138.000000" y1="10.000000" x2="138.000000" y2="370.000000" stroke-opacity="0.5"/><text x="138.000000" y="190.000000">     2.00</text><line stroke = "red" x1="202.000000" y1="10.000000" x2="202.000000" y2="370.000000" stroke-opacity="0.5"/><text x="202.000000" y="190.000000">     8.00</text><line stroke = "red" x1="266.000000" y1="10.000000" x2="266.000000" y2="370.000000" stroke-opacity="0.5"/><text x="266.000000" y="190.000000">    14.00</text><line stroke = "red" x1="330.000000" y1="10.000000" x2="330.000000" y2="370.000000" stroke-opacity="0.5"/><text x="330.000000" y="190.000000">    20.00</text><line stroke = "red" x1="394.000000" y1="10.000000" x2="394.000000" y2="370.000000" stroke-opacity="0.5"/><text x="394.000000" y="190.000000">    26.00</text><line stroke = "red" x1="458.000000" y1="10.000000" x2="458.000000" y2="370.000000" stroke-opacity="0.5"/><text x="458.000000" y="190.000000">    32.00</text><line stroke = "red" x1="522.000000" y1="10.000000" x2="522.000000" y2="370.000000" stroke-opacity="0.5"/><text x="522.000000" y="190.000000">    38.00</text><line stroke = "red" x1="586.000000" y1="10.000000" x2="586.000000" y2="370.000000" stroke-opacity="0.5"/><text x="586.000000" y="190.000000">    44.00</text><line stroke = "red" x1="650.000000" y1="10.000000" x2="650.000000" y2="370.000000" stroke-opacity="0.5"/><text x="650.000000" y="190.000000">    50.00</text><line stroke = "red" x1="10.000000" y1="370.000000" x2="650.000000" y2="370.000000" stroke-opacity="0.5"/><text x="116.666672" y="370.000000">  -100.00</text><line stroke = "red" x1="10.000000" y1="334.000000" x2="650.000000" y2="334.000000" stroke-opacity="0.5"/><text x="116.666672" y="334.000000">   -80.00</text><line stroke = "red" x1="10.000000" y1="298.000000" x2="650.000000" y2="298.000000" stroke-opacity="0.5"/><text x="116.666672" y="298.000000">   -60.00</text><line stroke = "red" x1="10.000000" y1="262.000000" x2="650.000000" y2="262.000000" stroke-opacity="0.5"/><text x="116.666672" y="262.000000">   -40.00</text><line stroke = "red" x1="10.000000" y1="226.000000" x2="650.000000" y2="226.000000" stroke-opacity="0.5"/><text x="116.666672" y="226.000000">   -20.00</text><line stroke = "red" x1="10.000000" y1="190.000000" x2="650.000000" y2="190.000000" stroke-opacity="0.5"/><text x="116.666672" y="190.000000">     0.00</text><line stroke = "red" x1="10.000000" y1="154.000000" x2="650.000000" y2="154.000000" stroke-opacity="0.5"/><text x="116.666672" y="154.000000">    20.00</text><line stroke = "red" x1="10.000000" y1="118.000000" x2="650.000000" y2="118.000000" stroke-opacity="0.5"/><text x="116.666672" y="118.000000">    40.00</text><line stroke = "red" x1="10.000000" y1="82.000000" x2="650.000000" y2="82.000000" stroke-opacity="0.5"/><text x="116.666672" y="82.000000">    60.00</text><line stroke = "red" x1="10.000000" y1="46.000000" x2="650.000000" y2="46.000000" stroke-opacity="0.5"/><text x="116.666672" y="46.000000">    80.00</text><line stroke = "red" x1="10.000000" y1="10.000000" x2="650.000000" y2="10.000000" stroke-opacity="0.5"/><text x="116.666672" y="10.000000">   100.00</text><line stroke = "black" x1="116.666672" y1="10.000000" x2="116.666672" y2="370.000000"/><line stroke = "black" x1="10.000000" y1="190.000000" x2="650.000000" y2="190.000000"/><rect fill="#000000" x="116.666672" y="100.000000" width="120.000000" height="90.000000"/><text x="176.666672" y="190.000000">lol</text><rect fill="#000000" x="246.666672" y="145.000000" width="120.000000" height="45.000000"/><text x="306.666672" y="190.000000">lol</text><rect fill="#000000" x="376.666672" y="190.000000" width="120.000000" height="-0.000000"/><text x="436.666672" y="190.000000">lol</text><rect fill="#000000" x="506.666672" y="190.000000" width="120.000000" height="45.000000"/><text x="566.666672" y="190.000000">lol</text><rect fill="#000000" x="636.666672" y="190.000000" width="120.000000" height="90.000000"/><text x="696.666672" y="190.000000">lol</text></svg>