<?xml version="1.0" encoding="UTF-8" ?><svg xmlns="http://www.w3.org/2000/svg" version="1.1" viewBox="0 0 740.000000 460.000000" stroke-width="1"><g stroke = "#dcdcdc"><line x1="50.000000" y1="50.000000" x2="50.000000" y2="410.000000"/><line x1="114.000000" y1="50.000000" x2="114.000000" y2="410.000000"/><line x1="178.000000" y1="50.000000" x2="178.000000" y2="410.000000"/><line x1="242.000000" y1="50.000000" x2="242.000000" y2="410.000000"/><line x1="306.000000" y1="50.000000" x2="306.000000" y2="410.000000"/><line x1="370.000000" y1="50.000000" x2="370.000000" y2="410.000000"/><line x1="434.000000" y1="50.000000" x2="434.000000" y2="410.000000"/><line x1="498.000000" y1="50.000000" x2="498.000000" y2="410.000000"/><line x1="562.000000" y1="50.000000" x2="562.000000" y2="410.000000"/><line x1="626.000000" y1="50.000000" x2="626.000000" y2="410.000000"/><line x1="690.000000" y1="50.000000" x2="690.000000" y2="410.000000"/><line x1="50.000000" y1="410.000000" x2="690.000000" y2="410.000000"/><line x1="50.000000" y1="374.000000" x2="690.000000" y2="374.000000"/><line x1="50.000000" y1="338.000000" x2="690.000000" y2="338.000000"/><line x1="50.000000" y1="302.000000" x2="690.000000" y2="302.000000"/><line x1="50.000000" y1="266.000000" x2="690.000000" y2="266.000000"/><line x1="50.000000" y1="230.000000" x2="690.000000" y2="230.000000"/><line x1="50.000000" y1="194.000000" x2="690.000000" y2="194.000000"/><line x1="50.000000" y1="158.000000" x2="690.000000" y2="158.000000"/><line x1="50.000000" y1="122.000000" x2="690.000000" y2="122.000000"/><line x1="50.000000" y1="86.000000" x2="690.000000" y2="86.000000"/><line x1="50.000000" y1="50.000000" x2="690.000000" y2="50.000000"/></g><g text-anchor = "end" font-size="10"><text x="45.000000" y="410.000000">  -100.00</text><text x="45.000000" y="374.000000">   -80.00</text><text x="45.000000" y="338.000000">   -60.00</text><text x="45.000000" y="302.000000">   -40.00</text><text x="45.000000" y="266.000000">   -20.00</text><text x="45.000000" y="230.000000">     0.00</text><text x="45.000000" y="194.000000">    20.00</text><text x="45.000000" y="158.000000">    40.00</text><text x="45.000000" y="122.000000">    60.00</text><text x="45.000000" y="86.000000">    80.00</text><text x="45.000000" y="50.000000">   100.00</text></g><g stroke = "#646464"><line x1="50.000000" y1="50.000000" x2="50.000000" y2="410.000000"/><line x1="50.000000" y1="230.000000" x2="690.000000" y2="230.000000"/></g><rect fill="#000000" x="50.000000" y="140.000000" width="120.000000" height="90.000000"/><text x="110.000000" y="250.000000">label</text><text x="110.000000" y="140.000000">     50.0</text><rect fill="#000000" x="180.000000" y="185.000000" width="120.000000" height="45.000000"/><text x="240.000000" y="250.000000">label</text><text x="240.000000" y="185.000000">     25.0</text><rect fill="#000000" x="310.000000" y="230.000000" width="120.000000" height="-0.000000"/><text x="370.000000" y="210.000000">label</text><text x="370.000000" y="250.000000">      0.0</text><rect fill="#000000" x="440.000000" y="230.000000" width="120.000000" height="45.000000"/><text x="500.000000" y="210.000000">label</text><text x="500.000000" y="295.000000">    -25.0</text><rect fill="#000000" x="570.000000" y="230.000000" width="120.000000" height="90.000000"/><text x="630.000000" y="210.000000">label</text><text x="630.000000" y="340.000000">    -50.0</text></svg>