<?xml version="1.0" encoding="UTF-8" ?><svg xmlns="http://www.w3.org/2000/svg" version="1.1" viewBox="0 0 740.000000 460.000000" stroke-width="1"><defs><clipPath id="fuckyou"><rect x="50.000000" y="50.000000" width="640.000000" height="360.000000"/></clipPath></defs><g stroke = "#dcdcdc"><line x1="50.000000" y1="50.000000" x2="50.000000" y2="410.000000"/><line x1="114.000000" y1="50.000000" x2="114.000000" y2="410.000000"/><line x1="178.000000" y1="50.000000" x2="178.000000" y2="410.000000"/><line x1="242.000000" y1="50.000000" x2="242.000000" y2="410.000000"/><line x1="306.000000" y1="50.000000" x2="306.000000" y2="410.000000"/><line x1="370.000000" y1="50.000000" x2="370.000000" y2="410.000000"/><line x1="434.000000" y1="50.000000" x2="434.000000" y2="410.000000"/><line x1="498.000000" y1="50.000000" x2="498.000000" y2="410.000000"/><line x1="562.000000" y1="50.000000" x2="562.000000" y2="410.000000"/><line x1="626.000000" y1="50.000000" x2="626.000000" y2="410.000000"/><line x1="690.000000" y1="50.000000" x2="690.000000" y2="410.000000"/><line x1="50.000000" y1="410.000000" x2="690.000000" y2="410.000000"/><line x1="50.000000" y1="374.000000" x2="690.000000" y2="374.000000"/><line x1="50.000000" y1="338.000000" x2="690.000000" y2="338.000000"/><line x1="50.000000" y1="302.000000" x2="690.000000" y2="302.000000"/><line x1="50.000000" y1="266.000000" x2="690.000000" y2="266.000000"/><line x1="50.000000" y1="230.000000" x2="690.000000" y2="230.000000"/><line x1="50.000000" y1="194.000000" x2="690.000000" y2="194.000000"/><line x1="50.000000" y1="158.000000" x2="690.000000" y2="158.000000"/><line x1="50.000000" y1="122.000000" x2="690.000000" y2="122.000000"/><line x1="50.000000" y1="86.000000" x2="690.000000" y2="86.000000"/><line x1="50.000000" y1="50.000000" x2="690.000000" y2="50.000000"/></g><g text-anchor = "end" font-size="12"><text x="45.000000" y="410.000000">  -100.00</text><text x="45.000000" y="374.000000">   -80.00</text><text x="45.000000" y="338.000000">   -60.00</text><text x="45.000000" y="302.000000">   -40.00</text><text x="45.000000" y="266.000000">   -20.00</text><text x="45.000000" y="230.000000">     0.00</text><text x="45.000000" y="194.000000">    20.00</text><text x="45.000000" y="158.000000">    40.00</text><text x="45.000000" y="122.000000">    60.00</text><text x="45.000000" y="86.000000">    80.00</text><text x="45.000000" y="50.000000">   100.00</text></g><g stroke = "#646464"><line x1="50.000000" y1="50.000000" x2="50.000000" y2="410.000000"/><line x1="50.000000" y1="230.000000" x2="690.000000" y2="230.000000"/></g><g text-anchor = "middle" font-size="12"><g clip-path="url(#fuckyou)"><rect fill="#ce68b8" x="50.000000" y="140.000000" width="98.333336" height="90.000000"/><text x="99.166672" y="135.000000">     50.0</text><rect fill="#b26dc2" x="158.333336" y="185.000000" width="98.333336" height="45.000000"/><text x="207.500000" y="180.000000">     25.0</text><rect fill="#9672cc" x="266.666672" y="230.000000" width="98.333336" height="-0.000000"/><text x="315.833344" y="245.000000">      0.0</text><rect fill="#7a77d6" x="375.000000" y="230.000000" width="98.333336" height="45.000000"/><text x="424.166656" y="290.000000">    -25.0</text><rect fill="#5e7ce0" x="483.333344" y="230.000000" width="98.333336" height="90.000000"/><text x="532.500000" y="335.000000">    -50.0</text><rect fill="#4182ea" x="591.666687" y="230.000000" width="98.333336" height="135.000000"/><text x="640.833374" y="380.000000">    -75.0</text></g><g dominant-baseline="hanging"><text x="99.166672" y="235.000000">label</text><text x="207.500000" y="235.000000">label</text></g><text x="315.833344" y="225.000000">label</text><text x="424.166656" y="225.000000">label</text><text x="532.500000" y="225.000000">label</text><text x="640.833374" y="225.000000">label</text></g></svg>