<?xml version="1.0" encoding="UTF-8" ?><svg xmlns="http://www.w3.org/2000/svg" version="1.1" viewBox="0 0 520.000000 520.000000" stroke-width="2"><g font-size="10" text-anchor="start" stroke-width="1" stroke ="#3c3c3c" fill="#3c3c3c"><circle cx="10.000000" cy="11.000000" r="2"/><circle cx="10.000000" cy="12.000000" r="2"/><circle cx="10.000000" cy="13.000000" r="2"/><circle cx="10.000000" cy="14.000000" r="2"/><circle cx="10.000000" cy="15.000000" r="2"/><circle cx="10.000000" cy="16.000000" r="2"/><circle cx="10.000000" cy="17.000000" r="2"/><circle cx="10.000000" cy="18.000000" r="2"/><circle cx="10.000000" cy="19.000000" r="2"/><circle cx="10.000000" cy="20.000000" r="2"/><circle cx="10.000000" cy="21.000000" r="2"/><circle cx="10.000000" cy="22.000000" r="2"/><circle cx="10.000000" cy="23.000000" r="2"/><circle cx="10.000000" cy="24.000000" r="2"/><circle cx="10.000000" cy="25.000000" r="2"/><circle cx="10.000000" cy="26.000000" r="2"/><circle cx="10.000000" cy="27.000000" r="2"/><circle cx="10.000000" cy="28.000000" r="2"/><circle cx="10.000000" cy="29.000000" r="2"/><circle cx="10.000000" cy="30.000000" r="2"/><circle cx="10.000000" cy="31.000000" r="2"/><circle cx="10.000000" cy="32.000000" r="2"/><circle cx="10.000000" cy="33.000000" r="2"/><circle cx="10.000000" cy="34.000000" r="2"/><circle cx="10.000000" cy="35.000000" r="2"/><circle cx="10.000000" cy="36.000000" r="2"/><circle cx="10.000000" cy="37.000000" r="2"/><circle cx="10.000000" cy="38.000000" r="2"/><circle cx="10.000000" cy="39.000000" r="2"/><circle cx="10.000000" cy="40.000000" r="2"/><circle cx="10.000000" cy="41.000000" r="2"/><circle cx="10.000000" cy="42.000000" r="2"/><circle cx="10.000000" cy="43.000000" r="2"/><circle cx="10.000000" cy="44.000000" r="2"/><circle cx="10.000000" cy="45.000000" r="2"/><circle cx="10.000000" cy="46.000000" r="2"/><circle cx="10.000000" cy="47.000000" r="2"/><circle cx="10.000000" cy="48.000000" r="2"/><circle cx="10.000000" cy="49.000000" r="2"/><circle cx="10.000000" cy="50.000000" r="2"/><circle cx="10.000000" cy="51.000000" r="2"/><circle cx="10.000000" cy="52.000000" r="2"/><circle cx="10.000000" cy="53.000000" r="2"/><circle cx="10.000000" cy="54.000000" r="2"/><circle cx="10.000000" cy="55.000000" r="2"/><circle cx="10.000000" cy="56.000000" r="2"/><circle cx="10.000000" cy="57.000000" r="2"/><circle cx="10.000000" cy="58.000000" r="2"/><circle cx="10.000000" cy="59.000000" r="2"/><circle cx="10.000000" cy="60.000000" r="2"/><circle cx="10.000000" cy="61.000000" r="2"/><circle cx="10.000000" cy="62.000000" r="2"/><circle cx="10.000000" cy="63.000000" r="2"/><circle cx="10.000000" cy="64.000000" r="2"/><circle cx="10.000000" cy="65.000000" r="2"/><circle cx="10.000000" cy="66.000000" r="2"/><circle cx="10.000000" cy="67.000000" r="2"/><circle cx="10.000000" cy="68.000000" r="2"/><circle cx="10.000000" cy="69.000000" r="2"/><circle cx="10.000000" cy="70.000000" r="2"/><circle cx="10.000000" cy="71.000000" r="2"/><circle cx="10.000000" cy="72.000000" r="2"/><circle cx="10.000000" cy="73.000000" r="2"/><circle cx="10.000000" cy="74.000000" r="2"/><circle cx="10.000000" cy="75.000000" r="2"/><circle cx="10.000000" cy="76.000000" r="2"/><circle cx="10.000000" cy="77.000000" r="2"/><circle cx="10.000000" cy="78.000000" r="2"/><circle cx="10.000000" cy="79.000000" r="2"/><circle cx="10.000000" cy="80.000000" r="2"/><circle cx="10.000000" cy="81.000000" r="2"/><circle cx="10.000000" cy="82.000000" r="2"/><circle cx="10.000000" cy="83.000000" r="2"/><circle cx="10.000000" cy="84.000000" r="2"/><circle cx="10.000000" cy="85.000000" r="2"/><circle cx="10.000000" cy="86.000000" r="2"/><circle cx="10.000000" cy="87.000000" r="2"/><circle cx="10.000000" cy="88.000000" r="2"/><circle cx="10.000000" cy="89.000000" r="2"/><circle cx="10.000000" cy="90.000000" r="2"/><circle cx="10.000000" cy="91.000000" r="2"/><circle cx="10.000000" cy="92.000000" r="2"/><circle cx="10.000000" cy="93.000000" r="2"/><circle cx="10.000000" cy="94.000000" r="2"/><circle cx="10.000000" cy="95.000000" r="2"/><circle cx="10.000000" cy="96.000000" r="2"/><circle cx="10.000000" cy="97.000000" r="2"/><circle cx="10.000000" cy="98.000000" r="2"/><circle cx="10.000000" cy="99.000000" r="2"/><circle cx="10.000000" cy="100.000000" r="2"/><circle cx="10.000000" cy="101.000000" r="2"/><circle cx="10.000000" cy="102.000000" r="2"/><circle cx="10.000000" cy="103.000000" r="2"/><circle cx="10.000000" cy="104.000000" r="2"/><circle cx="10.000000" cy="105.000000" r="2"/><circle cx="10.000000" cy="106.000000" r="2"/><circle cx="10.000000" cy="107.000000" r="2"/><circle cx="10.000000" cy="108.000000" r="2"/><circle cx="10.000000" cy="109.000000" r="2"/><circle cx="10.000000" cy="110.000000" r="2"/><circle cx="10.000000" cy="111.000000" r="2"/><circle cx="10.000000" cy="112.000000" r="2"/><circle cx="10.000000" cy="113.000000" r="2"/><circle cx="10.000000" cy="114.000000" r="2"/><circle cx="10.000000" cy="115.000000" r="2"/><circle cx="10.000000" cy="116.000000" r="2"/><circle cx="10.000000" cy="117.000000" r="2"/><circle cx="10.000000" cy="118.000000" r="2"/><circle cx="10.000000" cy="119.000000" r="2"/><circle cx="10.000000" cy="120.000000" r="2"/><circle cx="10.000000" cy="121.000000" r="2"/><circle cx="10.000000" cy="122.000000" r="2"/><circle cx="10.000000" cy="123.000000" r="2"/><circle cx="10.000000" cy="124.000000" r="2"/><circle cx="10.000000" cy="125.000000" r="2"/><circle cx="10.000000" cy="126.000000" r="2"/><circle cx="10.000000" cy="127.000000" r="2"/><circle cx="10.000000" cy="128.000000" r="2"/><circle cx="10.000000" cy="129.000000" r="2"/><circle cx="10.000000" cy="130.000000" r="2"/><circle cx="10.000000" cy="131.000000" r="2"/><circle cx="10.000000" cy="132.000000" r="2"/><circle cx="10.000000" cy="133.000000" r="2"/><circle cx="10.000000" cy="134.000000" r="2"/><circle cx="10.000000" cy="135.000000" r="2"/><circle cx="10.000000" cy="136.000000" r="2"/><circle cx="10.000000" cy="137.000000" r="2"/><circle cx="10.000000" cy="138.000000" r="2"/><circle cx="10.000000" cy="139.000000" r="2"/><circle cx="10.000000" cy="140.000000" r="2"/><circle cx="10.000000" cy="141.000000" r="2"/><circle cx="10.000000" cy="142.000000" r="2"/><circle cx="10.000000" cy="143.000000" r="2"/><circle cx="10.000000" cy="144.000000" r="2"/><circle cx="10.000000" cy="145.000000" r="2"/><circle cx="10.000000" cy="146.000000" r="2"/><circle cx="10.000000" cy="147.000000" r="2"/><circle cx="10.000000" cy="148.000000" r="2"/><circle cx="10.000000" cy="149.000000" r="2"/><circle cx="10.000000" cy="150.000000" r="2"/><circle cx="10.000000" cy="151.000000" r="2"/><circle cx="10.000000" cy="152.000000" r="2"/><circle cx="10.000000" cy="153.000000" r="2"/><circle cx="10.000000" cy="154.000000" r="2"/><circle cx="10.000000" cy="155.000000" r="2"/><circle cx="10.000000" cy="156.000000" r="2"/><circle cx="10.000000" cy="157.000000" r="2"/><circle cx="10.000000" cy="158.000000" r="2"/><circle cx="10.000000" cy="159.000000" r="2"/><circle cx="10.000000" cy="160.000000" r="2"/><circle cx="10.000000" cy="161.000000" r="2"/><circle cx="10.000000" cy="162.000000" r="2"/><circle cx="10.000000" cy="163.000000" r="2"/><circle cx="10.000000" cy="164.000000" r="2"/><circle cx="10.000000" cy="165.000000" r="2"/><circle cx="10.000000" cy="166.000000" r="2"/><circle cx="10.000000" cy="167.000000" r="2"/><circle cx="10.000000" cy="168.000000" r="2"/><circle cx="10.000000" cy="169.000000" r="2"/><circle cx="10.000000" cy="170.000000" r="2"/><circle cx="10.000000" cy="171.000000" r="2"/><circle cx="10.000000" cy="172.000000" r="2"/><circle cx="10.000000" cy="173.000000" r="2"/><circle cx="10.000000" cy="174.000000" r="2"/><circle cx="10.000000" cy="175.000000" r="2"/><circle cx="10.000000" cy="176.000000" r="2"/><circle cx="10.000000" cy="177.000000" r="2"/><circle cx="10.000000" cy="178.000000" r="2"/><circle cx="10.000000" cy="179.000000" r="2"/><circle cx="10.000000" cy="180.000000" r="2"/><circle cx="10.000000" cy="181.000000" r="2"/><circle cx="10.000000" cy="182.000000" r="2"/><circle cx="10.000000" cy="183.000000" r="2"/><circle cx="10.000000" cy="184.000000" r="2"/><circle cx="10.000000" cy="185.000000" r="2"/><circle cx="10.000000" cy="186.000000" r="2"/><circle cx="10.000000" cy="187.000000" r="2"/><circle cx="10.000000" cy="188.000000" r="2"/><circle cx="10.000000" cy="189.000000" r="2"/><circle cx="10.000000" cy="190.000000" r="2"/><circle cx="10.000000" cy="191.000000" r="2"/><circle cx="10.000000" cy="192.000000" r="2"/><circle cx="10.000000" cy="193.000000" r="2"/><circle cx="10.000000" cy="194.000000" r="2"/><circle cx="10.000000" cy="195.000000" r="2"/><circle cx="10.000000" cy="196.000000" r="2"/><circle cx="10.000000" cy="197.000000" r="2"/><circle cx="10.000000" cy="198.000000" r="2"/><circle cx="10.000000" cy="199.000000" r="2"/><circle cx="10.000000" cy="200.000000" r="2"/><circle cx="10.000000" cy="201.000000" r="2"/><circle cx="10.000000" cy="202.000000" r="2"/><circle cx="10.000000" cy="203.000000" r="2"/><circle cx="10.000000" cy="204.000000" r="2"/><circle cx="10.000000" cy="205.000000" r="2"/><circle cx="10.000000" cy="206.000000" r="2"/><circle cx="10.000000" cy="207.000000" r="2"/><circle cx="10.000000" cy="208.000000" r="2"/><circle cx="10.000000" cy="209.000000" r="2"/><circle cx="10.000000" cy="210.000000" r="2"/><circle cx="10.000000" cy="211.000000" r="2"/><circle cx="10.000000" cy="212.000000" r="2"/><circle cx="10.000000" cy="213.000000" r="2"/><circle cx="10.000000" cy="214.000000" r="2"/><circle cx="10.000000" cy="215.000000" r="2"/><circle cx="10.000000" cy="216.000000" r="2"/><circle cx="10.000000" cy="217.000000" r="2"/><circle cx="10.000000" cy="218.000000" r="2"/><circle cx="10.000000" cy="219.000000" r="2"/><circle cx="10.000000" cy="220.000000" r="2"/><circle cx="10.000000" cy="221.000000" r="2"/><circle cx="10.000000" cy="222.000000" r="2"/><circle cx="10.000000" cy="223.000000" r="2"/><circle cx="10.000000" cy="224.000000" r="2"/><circle cx="10.000000" cy="225.000000" r="2"/><circle cx="10.000000" cy="226.000000" r="2"/><circle cx="10.000000" cy="227.000000" r="2"/><circle cx="10.000000" cy="228.000000" r="2"/><circle cx="10.000000" cy="229.000000" r="2"/><circle cx="10.000000" cy="230.000000" r="2"/><circle cx="10.000000" cy="231.000000" r="2"/><circle cx="10.000000" cy="232.000000" r="2"/><circle cx="10.000000" cy="233.000000" r="2"/><circle cx="10.000000" cy="234.000000" r="2"/><circle cx="10.000000" cy="235.000000" r="2"/><circle cx="10.000000" cy="236.000000" r="2"/><circle cx="10.000000" cy="237.000000" r="2"/><circle cx="10.000000" cy="238.000000" r="2"/><circle cx="10.000000" cy="239.000000" r="2"/><circle cx="10.000000" cy="240.000000" r="2"/><circle cx="10.000000" cy="241.000000" r="2"/><circle cx="10.000000" cy="242.000000" r="2"/><circle cx="10.000000" cy="243.000000" r="2"/><circle cx="10.000000" cy="244.000000" r="2"/><circle cx="10.000000" cy="245.000000" r="2"/><circle cx="10.000000" cy="246.000000" r="2"/><circle cx="10.000000" cy="247.000000" r="2"/><circle cx="10.000000" cy="248.000000" r="2"/><circle cx="10.000000" cy="249.000000" r="2"/><circle cx="10.000000" cy="250.000000" r="2"/><circle cx="10.000000" cy="251.000000" r="2"/><circle cx="10.000000" cy="252.000000" r="2"/><circle cx="10.000000" cy="253.000000" r="2"/><circle cx="10.000000" cy="254.000000" r="2"/><circle cx="10.000000" cy="255.000000" r="2"/><circle cx="10.000000" cy="256.000000" r="2"/><circle cx="10.000000" cy="257.000000" r="2"/><circle cx="10.000000" cy="258.000000" r="2"/><circle cx="10.000000" cy="259.000000" r="2"/><circle cx="10.000000" cy="260.000000" r="2"/><circle cx="10.000000" cy="261.000000" r="2"/><circle cx="10.000000" cy="262.000000" r="2"/><circle cx="10.000000" cy="263.000000" r="2"/><circle cx="10.000000" cy="264.000000" r="2"/><circle cx="10.000000" cy="265.000000" r="2"/><circle cx="10.000000" cy="266.000000" r="2"/><circle cx="10.000000" cy="267.000000" r="2"/><circle cx="10.000000" cy="268.000000" r="2"/><circle cx="10.000000" cy="269.000000" r="2"/><circle cx="10.000000" cy="270.000000" r="2"/><circle cx="10.000000" cy="271.000000" r="2"/><circle cx="10.000000" cy="272.000000" r="2"/><circle cx="10.000000" cy="273.000000" r="2"/><circle cx="10.000000" cy="274.000000" r="2"/><circle cx="10.000000" cy="275.000000" r="2"/><circle cx="10.000000" cy="276.000000" r="2"/><circle cx="10.000000" cy="277.000000" r="2"/><circle cx="10.000000" cy="278.000000" r="2"/><circle cx="10.000000" cy="279.000000" r="2"/><circle cx="10.000000" cy="280.000000" r="2"/><circle cx="10.000000" cy="281.000000" r="2"/><circle cx="10.000000" cy="282.000000" r="2"/><circle cx="10.000000" cy="283.000000" r="2"/><circle cx="10.000000" cy="284.000000" r="2"/><circle cx="10.000000" cy="285.000000" r="2"/><circle cx="10.000000" cy="286.000000" r="2"/><circle cx="10.000000" cy="287.000000" r="2"/><circle cx="10.000000" cy="288.000000" r="2"/><circle cx="10.000000" cy="289.000000" r="2"/><circle cx="10.000000" cy="290.000000" r="2"/><circle cx="10.000000" cy="291.000000" r="2"/><circle cx="10.000000" cy="292.000000" r="2"/><circle cx="10.000000" cy="293.000000" r="2"/><circle cx="10.000000" cy="294.000000" r="2"/><circle cx="10.000000" cy="295.000000" r="2"/><circle cx="10.000000" cy="296.000000" r="2"/><circle cx="10.000000" cy="297.000000" r="2"/><circle cx="10.000000" cy="298.000000" r="2"/><circle cx="10.000000" cy="299.000000" r="2"/><circle cx="10.000000" cy="300.000000" r="2"/><circle cx="10.000000" cy="301.000000" r="2"/><circle cx="10.000000" cy="302.000000" r="2"/><circle cx="10.000000" cy="303.000000" r="2"/><circle cx="10.000000" cy="304.000000" r="2"/><circle cx="10.000000" cy="305.000000" r="2"/><circle cx="10.000000" cy="306.000000" r="2"/><circle cx="10.000000" cy="307.000000" r="2"/><circle cx="10.000000" cy="308.000000" r="2"/><circle cx="10.000000" cy="309.000000" r="2"/><circle cx="10.000000" cy="310.000000" r="2"/><circle cx="10.000000" cy="311.000000" r="2"/><circle cx="10.000000" cy="312.000000" r="2"/><circle cx="10.000000" cy="313.000000" r="2"/><circle cx="10.000000" cy="314.000000" r="2"/><circle cx="10.000000" cy="315.000000" r="2"/><circle cx="10.000000" cy="316.000000" r="2"/><circle cx="10.000000" cy="317.000000" r="2"/><circle cx="10.000000" cy="318.000000" r="2"/><circle cx="10.000000" cy="319.000000" r="2"/><circle cx="10.000000" cy="320.000000" r="2"/><circle cx="10.000000" cy="321.000000" r="2"/><circle cx="10.000000" cy="322.000000" r="2"/><circle cx="10.000000" cy="323.000000" r="2"/><circle cx="10.000000" cy="324.000000" r="2"/><circle cx="10.000000" cy="325.000000" r="2"/><circle cx="10.000000" cy="326.000000" r="2"/><circle cx="10.000000" cy="327.000000" r="2"/><circle cx="10.000000" cy="328.000000" r="2"/><circle cx="10.000000" cy="329.000000" r="2"/><circle cx="10.000000" cy="330.000000" r="2"/><circle cx="10.000000" cy="331.000000" r="2"/><circle cx="10.000000" cy="332.000000" r="2"/><circle cx="10.000000" cy="333.000000" r="2"/><circle cx="10.000000" cy="334.000000" r="2"/><circle cx="10.000000" cy="335.000000" r="2"/><circle cx="10.000000" cy="336.000000" r="2"/><circle cx="10.000000" cy="337.000000" r="2"/><circle cx="10.000000" cy="338.000000" r="2"/><circle cx="10.000000" cy="339.000000" r="2"/><circle cx="10.000000" cy="340.000000" r="2"/><circle cx="10.000000" cy="341.000000" r="2"/><circle cx="10.000000" cy="342.000000" r="2"/><circle cx="10.000000" cy="343.000000" r="2"/><circle cx="10.000000" cy="344.000000" r="2"/><circle cx="10.000000" cy="345.000000" r="2"/><circle cx="10.000000" cy="346.000000" r="2"/><circle cx="10.000000" cy="347.000000" r="2"/><circle cx="10.000000" cy="348.000000" r="2"/><circle cx="10.000000" cy="349.000000" r="2"/><circle cx="10.000000" cy="350.000000" r="2"/><circle cx="10.000000" cy="351.000000" r="2"/><circle cx="10.000000" cy="352.000000" r="2"/><circle cx="10.000000" cy="353.000000" r="2"/><circle cx="10.000000" cy="354.000000" r="2"/><circle cx="10.000000" cy="355.000000" r="2"/><circle cx="10.000000" cy="356.000000" r="2"/><circle cx="10.000000" cy="357.000000" r="2"/><circle cx="10.000000" cy="358.000000" r="2"/><circle cx="10.000000" cy="359.000000" r="2"/><circle cx="10.000000" cy="360.000000" r="2"/><circle cx="10.000000" cy="361.000000" r="2"/><circle cx="10.000000" cy="362.000000" r="2"/><circle cx="10.000000" cy="363.000000" r="2"/><circle cx="10.000000" cy="364.000000" r="2"/><circle cx="10.000000" cy="365.000000" r="2"/><circle cx="10.000000" cy="366.000000" r="2"/><circle cx="10.000000" cy="367.000000" r="2"/><circle cx="10.000000" cy="368.000000" r="2"/><circle cx="10.000000" cy="369.000000" r="2"/><circle cx="10.000000" cy="370.000000" r="2"/><circle cx="10.000000" cy="371.000000" r="2"/><circle cx="10.000000" cy="372.000000" r="2"/><circle cx="10.000000" cy="373.000000" r="2"/><circle cx="10.000000" cy="374.000000" r="2"/><circle cx="10.000000" cy="375.000000" r="2"/><circle cx="10.000000" cy="376.000000" r="2"/><circle cx="10.000000" cy="377.000000" r="2"/><circle cx="10.000000" cy="378.000000" r="2"/><circle cx="10.000000" cy="379.000000" r="2"/><circle cx="10.000000" cy="380.000000" r="2"/><circle cx="10.000000" cy="381.000000" r="2"/><circle cx="10.000000" cy="382.000000" r="2"/><circle cx="10.000000" cy="383.000000" r="2"/><circle cx="10.000000" cy="384.000000" r="2"/><circle cx="10.000000" cy="385.000000" r="2"/><circle cx="10.000000" cy="386.000000" r="2"/><circle cx="10.000000" cy="387.000000" r="2"/><circle cx="10.000000" cy="388.000000" r="2"/><circle cx="10.000000" cy="389.000000" r="2"/><circle cx="10.000000" cy="390.000000" r="2"/><circle cx="10.000000" cy="391.000000" r="2"/><circle cx="10.000000" cy="392.000000" r="2"/><circle cx="10.000000" cy="393.000000" r="2"/><circle cx="10.000000" cy="394.000000" r="2"/><circle cx="10.000000" cy="395.000000" r="2"/><circle cx="10.000000" cy="396.000000" r="2"/><circle cx="10.000000" cy="397.000000" r="2"/><circle cx="10.000000" cy="398.000000" r="2"/><circle cx="10.000000" cy="399.000000" r="2"/><circle cx="10.000000" cy="400.000000" r="2"/><circle cx="10.000000" cy="401.000000" r="2"/><circle cx="10.000000" cy="402.000000" r="2"/><circle cx="10.000000" cy="403.000000" r="2"/><circle cx="10.000000" cy="404.000000" r="2"/><circle cx="10.000000" cy="405.000000" r="2"/><circle cx="10.000000" cy="406.000000" r="2"/><circle cx="10.000000" cy="407.000000" r="2"/><circle cx="10.000000" cy="408.000000" r="2"/><circle cx="10.000000" cy="409.000000" r="2"/><circle cx="10.000000" cy="410.000000" r="2"/><circle cx="10.000000" cy="411.000000" r="2"/><circle cx="10.000000" cy="412.000000" r="2"/><circle cx="10.000000" cy="413.000000" r="2"/><circle cx="10.000000" cy="414.000000" r="2"/><circle cx="10.000000" cy="415.000000" r="2"/><circle cx="10.000000" cy="416.000000" r="2"/><circle cx="10.000000" cy="417.000000" r="2"/><circle cx="10.000000" cy="418.000000" r="2"/><circle cx="10.000000" cy="419.000000" r="2"/><circle cx="10.000000" cy="420.000000" r="2"/><circle cx="10.000000" cy="421.000000" r="2"/><circle cx="10.000000" cy="422.000000" r="2"/><circle cx="10.000000" cy="423.000000" r="2"/><circle cx="10.000000" cy="424.000000" r="2"/><circle cx="10.000000" cy="425.000000" r="2"/><circle cx="10.000000" cy="426.000000" r="2"/><circle cx="10.000000" cy="427.000000" r="2"/><circle cx="10.000000" cy="428.000000" r="2"/><circle cx="10.000000" cy="429.000000" r="2"/><circle cx="10.000000" cy="430.000000" r="2"/><circle cx="10.000000" cy="431.000000" r="2"/><circle cx="10.000000" cy="432.000000" r="2"/><circle cx="10.000000" cy="433.000000" r="2"/><circle cx="10.000000" cy="434.000000" r="2"/><circle cx="10.000000" cy="435.000000" r="2"/><circle cx="10.000000" cy="436.000000" r="2"/><circle cx="10.000000" cy="437.000000" r="2"/><circle cx="10.000000" cy="438.000000" r="2"/><circle cx="10.000000" cy="439.000000" r="2"/><circle cx="10.000000" cy="440.000000" r="2"/><circle cx="10.000000" cy="441.000000" r="2"/><circle cx="10.000000" cy="442.000000" r="2"/><circle cx="10.000000" cy="443.000000" r="2"/><circle cx="10.000000" cy="444.000000" r="2"/><circle cx="10.000000" cy="445.000000" r="2"/><circle cx="10.000000" cy="446.000000" r="2"/><circle cx="10.000000" cy="447.000000" r="2"/><circle cx="10.000000" cy="448.000000" r="2"/><circle cx="10.000000" cy="449.000000" r="2"/><circle cx="10.000000" cy="450.000000" r="2"/><circle cx="10.000000" cy="451.000000" r="2"/><circle cx="10.000000" cy="452.000000" r="2"/><circle cx="10.000000" cy="453.000000" r="2"/><circle cx="10.000000" cy="454.000000" r="2"/><circle cx="10.000000" cy="455.000000" r="2"/><circle cx="10.000000" cy="456.000000" r="2"/><circle cx="10.000000" cy="457.000000" r="2"/><circle cx="10.000000" cy="458.000000" r="2"/><circle cx="10.000000" cy="459.000000" r="2"/><circle cx="10.000000" cy="460.000000" r="2"/><circle cx="10.000000" cy="461.000000" r="2"/><circle cx="10.000000" cy="462.000000" r="2"/><circle cx="10.000000" cy="463.000000" r="2"/><circle cx="10.000000" cy="464.000000" r="2"/><circle cx="10.000000" cy="465.000000" r="2"/><circle cx="10.000000" cy="466.000000" r="2"/><circle cx="10.000000" cy="467.000000" r="2"/><circle cx="10.000000" cy="468.000000" r="2"/><circle cx="10.000000" cy="469.000000" r="2"/><circle cx="10.000000" cy="470.000000" r="2"/><circle cx="10.000000" cy="471.000000" r="2"/><circle cx="10.000000" cy="472.000000" r="2"/><circle cx="10.000000" cy="473.000000" r="2"/><circle cx="10.000000" cy="474.000000" r="2"/><circle cx="10.000000" cy="475.000000" r="2"/><circle cx="10.000000" cy="476.000000" r="2"/><circle cx="10.000000" cy="477.000000" r="2"/><circle cx="10.000000" cy="478.000000" r="2"/><circle cx="10.000000" cy="479.000000" r="2"/><circle cx="10.000000" cy="480.000000" r="2"/><circle cx="10.000000" cy="481.000000" r="2"/><circle cx="10.000000" cy="482.000000" r="2"/><circle cx="10.000000" cy="483.000000" r="2"/><circle cx="10.000000" cy="484.000000" r="2"/><circle cx="10.000000" cy="485.000000" r="2"/><circle cx="10.000000" cy="486.000000" r="2"/><circle cx="10.000000" cy="487.000000" r="2"/><circle cx="10.000000" cy="488.000000" r="2"/><circle cx="10.000000" cy="489.000000" r="2"/><circle cx="10.000000" cy="490.000000" r="2"/><circle cx="10.000000" cy="491.000000" r="2"/><circle cx="10.000000" cy="492.000000" r="2"/><circle cx="10.000000" cy="493.000000" r="2"/><circle cx="10.000000" cy="494.000000" r="2"/><circle cx="10.000000" cy="495.000000" r="2"/><circle cx="10.000000" cy="496.000000" r="2"/><circle cx="10.000000" cy="497.000000" r="2"/><circle cx="10.000000" cy="498.000000" r="2"/><circle cx="10.000000" cy="499.000000" r="2"/><circle cx="10.000000" cy="500.000000" r="2"/><circle cx="10.000000" cy="501.000000" r="2"/><circle cx="10.000000" cy="502.000000" r="2"/><circle cx="10.000000" cy="503.000000" r="2"/><circle cx="10.000000" cy="504.000000" r="2"/><circle cx="10.000000" cy="505.000000" r="2"/><circle cx="10.000000" cy="506.000000" r="2"/><circle cx="10.000000" cy="507.000000" r="2"/><circle cx="10.000000" cy="508.000000" r="2"/><circle cx="10.000000" cy="509.000000" r="2"/></g><polyline fill="none" points="10.000000, 10.000000 10.000000, 510.000000 " stroke = "#3c3c3c"/><polyline fill="none" points="10.000000, 510.000000 510.000000, 510.000000 " stroke = "#3c3c3c"/><rect fill="#f1bbe9" x="89.166664" y="10.000000" width="41.666668" height="500.000000"/><rect fill="#f1bbe9" x="40.000000" y="540.000000" width=" 5.000000" height=" 5.000000"/><text x="60.000000" y="540.000000">one : 500.000000</text><rect fill="#ebb3a6" x="189.166672" y="110.000000" width="41.666668" height="400.000000"/><rect fill="#ebb3a6" x="40.000000" y="580.000000" width=" 5.000000" height=" 5.000000"/><text x="60.000000" y="580.000000">two : 400.000000</text><rect fill="#db3c87" x="289.166656" y="210.000000" width="41.666668" height="300.000000"/><rect fill="#db3c87" x="40.000000" y="620.000000" width=" 5.000000" height=" 5.000000"/><text x="60.000000" y="620.000000">three : 300.000000</text><rect fill="#0c3e99" x="389.166656" y="310.000000" width="41.666668" height="200.000000"/><rect fill="#0c3e99" x="40.000000" y="660.000000" width=" 5.000000" height=" 5.000000"/><text x="60.000000" y="660.000000">one : 200.000000</text></svg>