<?xml version="1.0" encoding="UTF-8" ?><!--THIS DOCUMENT WAS GENERATED WITH CGLIB CREATED BY FULLNITROUS RIGHTS RESERVED TO VOIDZEHN HTTPS://MDPP.XYZ HTTPS://VOIDZEHN.COM HTTPS://CGLIB.XYZ HTTPS://FULLNITROUS.COM--><svg xmlns="http://www.w3.org/2000/svg" style ="font-family: sans-serif;" version="1.1" viewBox="0 0 670.000000 390.000000" stroke-width="1"><defs><clipPath id="fuckyou"><rect x="15.000000" y="15.000000" width="640.000000" height="360.000000"/></clipPath></defs><g font-size="12"><g clip-path="url(#fuckyou)"><path d="M 500.000000 195.000000 A 165.000000 165.000000 0 0 1 214.720169 307.950256 L 254.813446 270.300171 A 110.000000 110.000000 0 0 0 445.000000 195.000000" fill="#c969ba"></path><path d="M 385.987793 351.924316 A 165.000000 165.000000 0 0 1 190.409378 115.510674 L 238.606262 142.007111 A 110.000000 110.000000 0 0 0 368.991852 299.616211" fill="#a76fc6"></path><path d="M 201.512192 291.984558 A 165.000000 165.000000 0 0 1 365.917847 32.922592 L 355.611908 86.948395 A 110.000000 110.000000 0 0 0 246.008133 259.656372" fill="#8575d2"></path><path d="M 201.512207 98.015419 A 165.000000 165.000000 0 0 1 498.698914 174.320038 L 444.132629 181.213364 A 110.000000 110.000000 0 0 0 246.008133 130.343613" fill="#637bde"></path><path d="M 385.987823 38.075684 A 165.000000 165.000000 0 0 1 405.253479 344.296509 L 381.835663 294.531006 A 110.000000 110.000000 0 0 0 368.991882 90.383789" fill="#4182ea"></path><path d="M 500.000000 195.000000 A 165.000000 165.000000 0 0 1 385.987793 351.924316 L 368.991852 299.616211 A 110.000000 110.000000 0 0 0 445.000000 195.000000" fill="#c969ba"></path><g stroke="black"><g stroke="#646464"><line x1="468.487793" y1="291.984558" x2="588.487793" y2="291.984558"/><line x1="284.012177" y1="351.924316" x2="164.012177" y2="351.924316"/><line x1="170.000000" y1="194.999985" x2="50.000000" y2="194.999985"/><line x1="284.012238" y1="38.075657" x2="164.012238" y2="38.075657"/><line x1="468.487854" y1="98.015488" x2="588.487854" y2="98.015488"/></g></g><g text-anchor = "end"><text x="588.487793" y="286.984558">Label</text></g><text x="164.012177" y="346.924316">Label</text><text x="50.000000" y="189.999985">Label</text><text x="164.012238" y="33.075657">Label</text><g text-anchor = "end"><text x="588.487854" y="93.015488">Label</text></g><g fill="#646464" dominant-baseline="hanging"><g text-anchor = "end"><text x="588.487793" y="296.984558">     20.0%</text></g><text x="164.012177" y="356.924316">     20.0%</text><text x="50.000000" y="199.999985">     20.0%</text><text x="164.012238" y="43.075657">     20.0%</text><g text-anchor = "end"><text x="588.487854" y="103.015488">     20.0%</text></g></g></g><g text-anchor="middle" font-size="50"><text x="335.000000" y="195.000000">Label</text><g dominant-baseline="hanging" font-size="20"><text x="335.000000" y="200.000000">Label</text></g></g></g></svg>