<?xml version="1.0" encoding="UTF-8" ?><!--THIS DOCUMENT WAS GENERATED WITH CGLIB CREATED BY FULLNITROUS RIGHTS RESERVED TO VOIDZEHN HTTPS://MDPP.XYZ HTTPS://VOIDZEHN.COM HTTPS://CGLIB.XYZ HTTPS://FULLNITROUS.COM--><svg xmlns="http://www.w3.org/2000/svg" style ="font-family: sans-serif;" version="1.1" viewBox="0 0 740.000000 460.000000" stroke-width="1"><defs><clipPath id="fuckyou"><rect x="50.000000" y="50.000000" width="640.000000" height="360.000000"/></clipPath></defs><g font-size="12"><g clip-path="url(#fuckyou)"><path d="M 500.000000 230.000000 A 130.000000 130.000000 0 0 1 475.172211 306.412079 L 440.114807 280.941376 A 86.666664 86.666664 0 0 0 456.666656 230.000000" fill="#c06abd"></path><path d="M 475.172211 306.412079 A 130.000000 130.000000 0 0 1 410.172211 353.637360 L 396.781464 312.424896 A 86.666664 86.666664 0 0 0 440.114807 280.941376" fill="#9672cc"></path><path d="M 410.172211 353.637360 A 130.000000 130.000000 0 0 1 246.362656 189.827789 L 287.575104 203.218536 A 86.666664 86.666664 0 0 0 396.781464 312.424896" fill="#6c7adb"></path><path d="M 246.362656 189.827789 A 130.000000 130.000000 0 0 1 410.172241 106.362656 L 396.781494 147.575104 A 86.666664 86.666664 0 0 0 287.575104 203.218536" fill="#4182ea"></path><path d="M 500.000000 230.000000 A 130.000000 130.000000 0 0 1 475.172211 306.412079 L 440.114807 280.941376 A 86.666664 86.666664 0 0 0 456.666656 230.000000" fill="#c06abd"></path><g stroke="black"><g stroke="#646464"><line x1="493.637360" y1="270.172211" x2="613.637329" y2="270.172211"/><line x1="446.412079" y1="335.172211" x2="566.412109" y2="335.172211"/><line x1="278.076111" y1="321.923889" x2="158.076111" y2="321.923889"/><line x1="310.981262" y1="114.169136" x2="190.981262" y2="114.169136"/></g></g><g text-anchor="end"><text x="613.637329" y="265.172211">Label</text><text x="566.412109" y="330.172211">Label</text></g><g ><text x="158.076111" y="316.923889">Label</text><text x="190.981262" y="109.169136">Label</text></g><g fill="#646464" dominant-baseline="hanging"><g text-anchor="end"><text x="613.637329" y="275.172211">     10.0%</text><text x="566.412109" y="340.172211">     10.0%</text></g><g ><text x="158.076111" y="326.923889">     35.0%</text><text x="190.981262" y="119.169136">     25.0%</text></g></g></g><g text-anchor="middle" font-size="50"><text x="370.000000" y="230.000000">Label</text><g dominant-baseline="hanging" font-size="20"><text x="370.000000" y="235.000000">Label</text></g></g></g></svg>