<?xml version="1.0" encoding="UTF-8" ?><svg xmlns="http://www.w3.org/2000/svg" version="1.1" viewBox="0 0 740.000000 460.000000" stroke-width="1"><defs><clipPath id="fuckyou"><rect x="50.000000" y="50.000000" width="640.000000" height="360.000000"/></clipPath></defs><g stroke = "#dcdcdc"><line x1="50.000000" y1="50.000000" x2="50.000000" y2="410.000000"/><line x1="114.000000" y1="50.000000" x2="114.000000" y2="410.000000"/><line x1="178.000000" y1="50.000000" x2="178.000000" y2="410.000000"/><line x1="242.000000" y1="50.000000" x2="242.000000" y2="410.000000"/><line x1="306.000000" y1="50.000000" x2="306.000000" y2="410.000000"/><line x1="370.000000" y1="50.000000" x2="370.000000" y2="410.000000"/><line x1="434.000000" y1="50.000000" x2="434.000000" y2="410.000000"/><line x1="498.000000" y1="50.000000" x2="498.000000" y2="410.000000"/><line x1="562.000000" y1="50.000000" x2="562.000000" y2="410.000000"/><line x1="626.000000" y1="50.000000" x2="626.000000" y2="410.000000"/><line x1="690.000000" y1="50.000000" x2="690.000000" y2="410.000000"/><line x1="50.000000" y1="410.000000" x2="690.000000" y2="410.000000"/><line x1="50.000000" y1="374.000000" x2="690.000000" y2="374.000000"/><line x1="50.000000" y1="338.000000" x2="690.000000" y2="338.000000"/><line x1="50.000000" y1="302.000000" x2="690.000000" y2="302.000000"/><line x1="50.000000" y1="266.000000" x2="690.000000" y2="266.000000"/><line x1="50.000000" y1="230.000000" x2="690.000000" y2="230.000000"/><line x1="50.000000" y1="194.000000" x2="690.000000" y2="194.000000"/><line x1="50.000000" y1="158.000000" x2="690.000000" y2="158.000000"/><line x1="50.000000" y1="122.000000" x2="690.000000" y2="122.000000"/><line x1="50.000000" y1="86.000000" x2="690.000000" y2="86.000000"/><line x1="50.000000" y1="50.000000" x2="690.000000" y2="50.000000"/></g><g text-anchor = "end" dominant-baseline="hanging" font-size="12"><text x="50.000000" y="295.000000" transform="rotate(-30.000000, 50.000000, 290.000000)" >   -25.00</text><text x="114.000000" y="295.000000" transform="rotate(-30.000000, 114.000000, 290.000000)" >   -20.00</text><text x="178.000000" y="295.000000" transform="rotate(-30.000000, 178.000000, 290.000000)" >   -15.00</text><text x="242.000000" y="295.000000" transform="rotate(-30.000000, 242.000000, 290.000000)" >   -10.00</text><text x="306.000000" y="295.000000" transform="rotate(-30.000000, 306.000000, 290.000000)" >    -5.00</text><text x="370.000000" y="295.000000" transform="rotate(-30.000000, 370.000000, 290.000000)" >     0.00</text><text x="434.000000" y="295.000000" transform="rotate(-30.000000, 434.000000, 290.000000)" >     5.00</text><text x="498.000000" y="295.000000" transform="rotate(-30.000000, 498.000000, 290.000000)" >    10.00</text><text x="562.000000" y="295.000000" transform="rotate(-30.000000, 562.000000, 290.000000)" >    15.00</text><text x="626.000000" y="295.000000" transform="rotate(-30.000000, 626.000000, 290.000000)" >    20.00</text><text x="690.000000" y="295.000000" transform="rotate(-30.000000, 690.000000, 290.000000)" >    25.00</text></g><g text-anchor = "end" font-size="12"><text x="365.000000" y="410.000000">  -100.00</text><text x="365.000000" y="374.000000">   -70.00</text><text x="365.000000" y="338.000000">   -40.00</text><text x="365.000000" y="302.000000">   -10.00</text><text x="365.000000" y="266.000000">    20.00</text><text x="365.000000" y="230.000000">    50.00</text><text x="365.000000" y="194.000000">    80.00</text><text x="365.000000" y="158.000000">   110.00</text><text x="365.000000" y="122.000000">   140.00</text><text x="365.000000" y="86.000000">   170.00</text><text x="365.000000" y="50.000000">   200.00</text></g><g stroke = "#646464"><line x1="370.000000" y1="50.000000" x2="370.000000" y2="410.000000"/><line x1="50.000000" y1="290.000000" x2="690.000000" y2="290.000000"/></g><g clip-path="url(#fuckyou)"><polyline fill="none" stroke="#ff0000" points="120.399994, -166.300018 126.800003, -143.200012 133.199997, -120.700012 139.599991, -98.800018 146.000000, -77.500000 152.399994, -56.800018 158.800003, -36.700012 165.199997, -17.200012 171.599991,  1.699982 178.000000, 20.000000 184.399994, 37.699997 190.800003, 54.799988 197.199997, 71.299988 203.599991, 87.199997 210.000000, 102.500000 216.399994, 117.199997 222.800003, 131.299988 229.199997, 144.799988 235.599991, 157.699997 242.000000, 170.000000 248.399994, 181.699997 254.799988, 192.799988 261.200012, 203.299988 267.600006, 213.199997 274.000000, 222.500000 280.399994, 231.199997 286.799988, 239.300003 293.200012, 246.800003 299.600006, 253.699997 306.000000, 260.000000 312.399994, 265.700012 318.799988, 270.799988 325.200012, 275.299988 331.600006, 279.200012 338.000000, 282.500000 344.399994, 285.200012 350.799988, 287.299988 357.200012, 288.799988 363.600006, 289.700012 370.000000, 290.000000 376.399994, 289.700012 382.799988, 288.799988 389.200012, 287.299988 395.600006, 285.200012 402.000000, 282.500000 408.399994, 279.200012 414.799988, 275.299988 421.200012, 270.799988 427.600006, 265.700012 434.000000, 260.000000 440.399994, 253.699997 446.799988, 246.800003 453.200012, 239.300003 459.600006, 231.199997 466.000000, 222.500000 472.399994, 213.199997 478.799988, 203.299988 485.200012, 192.799988 491.600006, 181.699997 498.000000, 170.000000 504.400024, 157.699997 510.799988, 144.799988 517.200012, 131.299988 523.599976, 117.199997 530.000000, 102.500000 536.400024, 87.199997 542.799988, 71.299988 549.200012, 54.799988 555.599976, 37.699997 562.000000, 20.000000 568.400024,  1.699982 574.799988, -17.200012 581.200012, -36.700012 587.599976, -56.800018 594.000000, -77.500000 600.400024, -98.800018 606.799988, -120.700012 613.200012, -143.200012 619.599976, -166.300018 626.000000, -190.000031 "/><g font-size="10" text-anchor="start" stroke-width="1" stroke ="#0000ff" fill="#0000ff"><circle cx="120.399994" cy="-8607.850586" r="1"/><circle cx="126.800003" cy="-7940.800781" r="1"/><circle cx="133.199997" cy="-7307.950195" r="1"/><circle cx="139.599991" cy="-6708.400391" r="1"/><circle cx="146.000000" cy="-6141.250488" r="1"/><circle cx="152.399994" cy="-5605.600098" r="1"/><circle cx="158.800003" cy="-5100.550293" r="1"/><circle cx="165.199997" cy="-4625.200195" r="1"/><circle cx="171.599991" cy="-4178.650391" r="1"/><circle cx="178.000000" cy="-3760.000244" r="1"/><circle cx="184.399994" cy="-3368.350098" r="1"/><circle cx="190.800003" cy="-3002.800049" r="1"/><circle cx="197.199997" cy="-2662.450195" r="1"/><circle cx="203.599991" cy="-2346.400146" r="1"/><circle cx="210.000000" cy="-2053.750000" r="1"/><circle cx="216.399994" cy="-1783.600098" r="1"/><circle cx="222.800003" cy="-1535.050049" r="1"/><circle cx="229.199997" cy="-1307.200073" r="1"/><circle cx="235.599991" cy="-1099.150024" r="1"/><circle cx="242.000000" cy="-910.000000" r="1"/><circle cx="248.399994" cy="-738.850098" r="1"/><circle cx="254.799988" cy="-584.800049" r="1"/><circle cx="261.200012" cy="-446.950012" r="1"/><circle cx="267.600006" cy="-324.400024" r="1"/><circle cx="274.000000" cy="-216.250031" r="1"/><circle cx="280.399994" cy="-121.600006" r="1"/><circle cx="286.799988" cy="-39.550018" r="1"/><circle cx="293.200012" cy="30.799988" r="1"/><circle cx="299.600006" cy="90.349991" r="1"/><circle cx="306.000000" cy="140.000000" r="1"/><circle cx="312.399994" cy="180.649994" r="1"/><circle cx="318.799988" cy="213.199997" r="1"/><circle cx="325.200012" cy="238.550003" r="1"/><circle cx="331.600006" cy="257.600006" r="1"/><circle cx="338.000000" cy="271.250000" r="1"/><circle cx="344.399994" cy="280.399994" r="1"/><circle cx="350.799988" cy="285.950012" r="1"/><circle cx="357.200012" cy="288.799988" r="1"/><circle cx="363.600006" cy="289.850006" r="1"/><circle cx="370.000000" cy="290.000000" r="1"/><circle cx="376.399994" cy="290.149994" r="1"/><circle cx="382.799988" cy="291.200012" r="1"/><circle cx="389.200012" cy="294.049988" r="1"/><circle cx="395.600006" cy="299.600006" r="1"/><circle cx="402.000000" cy="308.750000" r="1"/><circle cx="408.399994" cy="322.399994" r="1"/><circle cx="414.799988" cy="341.450012" r="1"/><circle cx="421.200012" cy="366.799988" r="1"/><circle cx="427.600006" cy="399.350006" r="1"/><circle cx="434.000000" cy="440.000000" r="1"/><circle cx="440.399994" cy="489.650024" r="1"/><circle cx="446.799988" cy="549.200012" r="1"/><circle cx="453.200012" cy="619.550049" r="1"/><circle cx="459.600006" cy="701.599976" r="1"/><circle cx="466.000000" cy="796.250000" r="1"/><circle cx="472.399994" cy="904.400024" r="1"/><circle cx="478.799988" cy="1026.949951" r="1"/><circle cx="485.200012" cy="1164.800049" r="1"/><circle cx="491.600006" cy="1318.850098" r="1"/><circle cx="498.000000" cy="1490.000000" r="1"/><circle cx="504.400024" cy="1679.150024" r="1"/><circle cx="510.799988" cy="1887.200073" r="1"/><circle cx="517.200012" cy="2115.050049" r="1"/><circle cx="523.599976" cy="2363.600098" r="1"/><circle cx="530.000000" cy="2633.750000" r="1"/><circle cx="536.400024" cy="2926.400146" r="1"/><circle cx="542.799988" cy="3242.450195" r="1"/><circle cx="549.200012" cy="3582.800049" r="1"/><circle cx="555.599976" cy="3948.350098" r="1"/><circle cx="562.000000" cy="4340.000000" r="1"/><circle cx="568.400024" cy="4758.650391" r="1"/><circle cx="574.799988" cy="5205.200195" r="1"/><circle cx="581.200012" cy="5680.550293" r="1"/><circle cx="587.599976" cy="6185.600098" r="1"/><circle cx="594.000000" cy="6721.250488" r="1"/><circle cx="600.400024" cy="7288.400391" r="1"/><circle cx="606.799988" cy="7887.950195" r="1"/><circle cx="613.200012" cy="8520.800781" r="1"/><circle cx="619.599976" cy="9187.850586" r="1"/><circle cx="626.000000" cy="9890.000000" r="1"/></g></g></svg>