<?xml version="1.0" encoding="UTF-8" ?><svg xmlns="http://www.w3.org/2000/svg" version="1.1" viewBox="0 0 660.000000 380.000000" stroke-width="1"><line stroke = "red" x1="10.000000" y1="10.000000" x2="10.000000" y2="370.000000" stroke-opacity="0.5"/><text x="10.000000" y="250.000000">     0.00</text><line stroke = "red" x1="74.000000" y1="10.000000" x2="74.000000" y2="370.000000" stroke-opacity="0.5"/><text x="74.000000" y="250.000000">     5.00</text><line stroke = "red" x1="138.000000" y1="10.000000" x2="138.000000" y2="370.000000" stroke-opacity="0.5"/><text x="138.000000" y="250.000000">    10.00</text><line stroke = "red" x1="202.000000" y1="10.000000" x2="202.000000" y2="370.000000" stroke-opacity="0.5"/><text x="202.000000" y="250.000000">    15.00</text><line stroke = "red" x1="266.000000" y1="10.000000" x2="266.000000" y2="370.000000" stroke-opacity="0.5"/><text x="266.000000" y="250.000000">    20.00</text><line stroke = "red" x1="330.000000" y1="10.000000" x2="330.000000" y2="370.000000" stroke-opacity="0.5"/><text x="330.000000" y="250.000000">    25.00</text><line stroke = "red" x1="394.000000" y1="10.000000" x2="394.000000" y2="370.000000" stroke-opacity="0.5"/><text x="394.000000" y="250.000000">    30.00</text><line stroke = "red" x1="458.000000" y1="10.000000" x2="458.000000" y2="370.000000" stroke-opacity="0.5"/><text x="458.000000" y="250.000000">    35.00</text><line stroke = "red" x1="522.000000" y1="10.000000" x2="522.000000" y2="370.000000" stroke-opacity="0.5"/><text x="522.000000" y="250.000000">    40.00</text><line stroke = "red" x1="586.000000" y1="10.000000" x2="586.000000" y2="370.000000" stroke-opacity="0.5"/><text x="586.000000" y="250.000000">    45.00</text><line stroke = "red" x1="650.000000" y1="10.000000" x2="650.000000" y2="370.000000" stroke-opacity="0.5"/><text x="650.000000" y="250.000000">    50.00</text><line stroke = "red" x1="10.000000" y1="370.000000" x2="650.000000" y2="370.000000" stroke-opacity="0.5"/><text x="10.000000" y="370.000000">  -100.00</text><line stroke = "red" x1="10.000000" y1="334.000000" x2="650.000000" y2="334.000000" stroke-opacity="0.5"/><text x="10.000000" y="334.000000">   -70.00</text><line stroke = "red" x1="10.000000" y1="298.000000" x2="650.000000" y2="298.000000" stroke-opacity="0.5"/><text x="10.000000" y="298.000000">   -40.00</text><line stroke = "red" x1="10.000000" y1="262.000000" x2="650.000000" y2="262.000000" stroke-opacity="0.5"/><text x="10.000000" y="262.000000">   -10.00</text><line stroke = "red" x1="10.000000" y1="226.000000" x2="650.000000" y2="226.000000" stroke-opacity="0.5"/><text x="10.000000" y="226.000000">    20.00</text><line stroke = "red" x1="10.000000" y1="190.000000" x2="650.000000" y2="190.000000" stroke-opacity="0.5"/><text x="10.000000" y="190.000000">    50.00</text><line stroke = "red" x1="10.000000" y1="154.000000" x2="650.000000" y2="154.000000" stroke-opacity="0.5"/><text x="10.000000" y="154.000000">    80.00</text><line stroke = "red" x1="10.000000" y1="118.000000" x2="650.000000" y2="118.000000" stroke-opacity="0.5"/><text x="10.000000" y="118.000000">   110.00</text><line stroke = "red" x1="10.000000" y1="82.000000" x2="650.000000" y2="82.000000" stroke-opacity="0.5"/><text x="10.000000" y="82.000000">   140.00</text><line stroke = "red" x1="10.000000" y1="46.000000" x2="650.000000" y2="46.000000" stroke-opacity="0.5"/><text x="10.000000" y="46.000000">   170.00</text><line stroke = "red" x1="10.000000" y1="10.000000" x2="650.000000" y2="10.000000" stroke-opacity="0.5"/><text x="10.000000" y="10.000000">   200.00</text><line stroke = "black" x1="10.000000" y1="10.000000" x2="10.000000" y2="370.000000"/><line stroke = "black" x1="10.000000" y1="250.000000" x2="650.000000" y2="250.000000"/><polyline fill="none" stroke="#000000" points="-239.600006, -206.300018 -233.199997, -183.200012 -226.800003, -160.700012 -220.400009, -138.800018 -214.000000, -117.500000 -207.600006, -96.800018 -201.199997, -76.700012 -194.800003, -57.200012 -188.400009, -38.300018 -182.000000, -20.000000 -175.600006, -2.300003 -169.199997, 14.799988 -162.800003, 31.299988 -156.400009, 47.199997 -150.000000, 62.500000 -143.600006, 77.199997 -137.199997, 91.299988 -130.800003, 104.799988 -124.400009, 117.699997 -118.000000, 130.000000 -111.599998, 141.699997 -105.200005, 152.799988 -98.800003, 163.299988 -92.400002, 173.199997 -86.000000, 182.500000 -79.599998, 191.199997 -73.200005, 199.300003 -66.800003, 206.800003 -60.400002, 213.699997 -54.000000, 220.000000 -47.600002, 225.699997 -41.200001, 230.800003 -34.799999, 235.300003 -28.400002, 239.199997 -22.000000, 242.500000 -15.600000, 245.199997 -9.200001, 247.300003 -2.800000, 248.800003  3.600000, 249.699997 10.000000, 250.000000 16.400000, 249.699997 22.799999, 248.800003 29.200001, 247.300003 35.599998, 245.199997 42.000000, 242.500000 48.400002, 239.199997 54.799999, 235.300003 61.200001, 230.800003 67.600006, 225.699997 74.000000, 220.000000 80.400002, 213.699997 86.800003, 206.800003 93.200005, 199.300003 99.599998, 191.199997 106.000000, 182.500000 112.400002, 173.199997 118.800003, 163.299988 125.200005, 152.799988 131.600006, 141.699997 138.000000, 130.000000 144.400009, 117.699997 150.800003, 104.799988 157.199997, 91.299988 163.600006, 77.199997 170.000000, 62.500000 176.400009, 47.199997 182.800003, 31.299988 189.199997, 14.799988 195.600006, -2.300003 202.000000, -20.000000 208.400009, -38.300018 214.800003, -57.200012 221.199997, -76.700012 227.600006, -96.800018 234.000000, -117.500000 240.400009, -138.800018 246.800003, -160.700012 253.199997, -183.200012 259.600006, -206.300018 266.000000, -230.000031 "/><g font-size="10" text-anchor="start" stroke-width="1" stroke ="#000000" fill="#000000"><circle cx="-239.600006" cy="706.300049" r="1"/><circle cx="-233.199997" cy="683.200012" r="1"/><circle cx="-226.800003" cy="660.700012" r="1"/><circle cx="-220.400009" cy="638.800049" r="1"/><circle cx="-214.000000" cy="617.500000" r="1"/><circle cx="-207.600006" cy="596.800049" r="1"/><circle cx="-201.199997" cy="576.700012" r="1"/><circle cx="-194.800003" cy="557.200012" r="1"/><circle cx="-188.400009" cy="538.300049" r="1"/><circle cx="-182.000000" cy="520.000000" r="1"/><circle cx="-175.600006" cy="502.299988" r="1"/><circle cx="-169.199997" cy="485.200012" r="1"/><circle cx="-162.800003" cy="468.700012" r="1"/><circle cx="-156.400009" cy="452.799988" r="1"/><circle cx="-150.000000" cy="437.500000" r="1"/><circle cx="-143.600006" cy="422.799988" r="1"/><circle cx="-137.199997" cy="408.700012" r="1"/><circle cx="-130.800003" cy="395.200012" r="1"/><circle cx="-124.400009" cy="382.299988" r="1"/><circle cx="-118.000000" cy="370.000000" r="1"/><circle cx="-111.599998" cy="358.299988" r="1"/><circle cx="-105.200005" cy="347.200012" r="1"/><circle cx="-98.800003" cy="336.700012" r="1"/><circle cx="-92.400002" cy="326.799988" r="1"/><circle cx="-86.000000" cy="317.500000" r="1"/><circle cx="-79.599998" cy="308.799988" r="1"/><circle cx="-73.200005" cy="300.700012" r="1"/><circle cx="-66.800003" cy="293.200012" r="1"/><circle cx="-60.400002" cy="286.299988" r="1"/><circle cx="-54.000000" cy="280.000000" r="1"/><circle cx="-47.600002" cy="274.299988" r="1"/><circle cx="-41.200001" cy="269.200012" r="1"/><circle cx="-34.799999" cy="264.700012" r="1"/><circle cx="-28.400002" cy="260.799988" r="1"/><circle cx="-22.000000" cy="257.500000" r="1"/><circle cx="-15.600000" cy="254.800003" r="1"/><circle cx="-9.200001" cy="252.699997" r="1"/><circle cx="-2.800000" cy="251.199997" r="1"/><circle cx=" 3.600000" cy="250.300003" r="1"/><circle cx="10.000000" cy="250.000000" r="1"/><circle cx="16.400000" cy="250.300003" r="1"/><circle cx="22.799999" cy="251.199997" r="1"/><circle cx="29.200001" cy="252.699997" r="1"/><circle cx="35.599998" cy="254.800003" r="1"/><circle cx="42.000000" cy="257.500000" r="1"/><circle cx="48.400002" cy="260.799988" r="1"/><circle cx="54.799999" cy="264.700012" r="1"/><circle cx="61.200001" cy="269.200012" r="1"/><circle cx="67.600006" cy="274.299988" r="1"/><circle cx="74.000000" cy="280.000000" r="1"/><circle cx="80.400002" cy="286.299988" r="1"/><circle cx="86.800003" cy="293.200012" r="1"/><circle cx="93.200005" cy="300.700012" r="1"/><circle cx="99.599998" cy="308.799988" r="1"/><circle cx="106.000000" cy="317.500000" r="1"/><circle cx="112.400002" cy="326.799988" r="1"/><circle cx="118.800003" cy="336.700012" r="1"/><circle cx="125.200005" cy="347.200012" r="1"/><circle cx="131.600006" cy="358.299988" r="1"/><circle cx="138.000000" cy="370.000000" r="1"/><circle cx="144.400009" cy="382.299988" r="1"/><circle cx="150.800003" cy="395.200012" r="1"/><circle cx="157.199997" cy="408.700012" r="1"/><circle cx="163.600006" cy="422.799988" r="1"/><circle cx="170.000000" cy="437.500000" r="1"/><circle cx="176.400009" cy="452.799988" r="1"/><circle cx="182.800003" cy="468.700012" r="1"/><circle cx="189.199997" cy="485.200012" r="1"/><circle cx="195.600006" cy="502.299988" r="1"/><circle cx="202.000000" cy="520.000000" r="1"/><circle cx="208.400009" cy="538.300049" r="1"/><circle cx="214.800003" cy="557.200012" r="1"/><circle cx="221.199997" cy="576.700012" r="1"/><circle cx="227.600006" cy="596.800049" r="1"/><circle cx="234.000000" cy="617.500000" r="1"/><circle cx="240.400009" cy="638.800049" r="1"/><circle cx="246.800003" cy="660.700012" r="1"/><circle cx="253.199997" cy="683.200012" r="1"/><circle cx="259.600006" cy="706.300049" r="1"/><circle cx="266.000000" cy="730.000000" r="1"/></g></svg>