<?xml version="1.0" encoding="UTF-8" ?><svg xmlns="http://www.w3.org/2000/svg" version="1.1" viewBox="0 0 660.000000 380.000000" stroke-width="1"><line stroke = "red" x1="10.000000" y1="10.000000" x2="10.000000" y2="370.000000" stroke-opacity="0.5"/><text x="10.000000" y="250.000000">   -25.00</text><line stroke = "red" x1="74.000000" y1="10.000000" x2="74.000000" y2="370.000000" stroke-opacity="0.5"/><text x="74.000000" y="250.000000">   -20.00</text><line stroke = "red" x1="138.000000" y1="10.000000" x2="138.000000" y2="370.000000" stroke-opacity="0.5"/><text x="138.000000" y="250.000000">   -15.00</text><line stroke = "red" x1="202.000000" y1="10.000000" x2="202.000000" y2="370.000000" stroke-opacity="0.5"/><text x="202.000000" y="250.000000">   -10.00</text><line stroke = "red" x1="266.000000" y1="10.000000" x2="266.000000" y2="370.000000" stroke-opacity="0.5"/><text x="266.000000" y="250.000000">    -5.00</text><line stroke = "red" x1="330.000000" y1="10.000000" x2="330.000000" y2="370.000000" stroke-opacity="0.5"/><text x="330.000000" y="250.000000">     0.00</text><line stroke = "red" x1="394.000000" y1="10.000000" x2="394.000000" y2="370.000000" stroke-opacity="0.5"/><text x="394.000000" y="250.000000">     5.00</text><line stroke = "red" x1="458.000000" y1="10.000000" x2="458.000000" y2="370.000000" stroke-opacity="0.5"/><text x="458.000000" y="250.000000">    10.00</text><line stroke = "red" x1="522.000000" y1="10.000000" x2="522.000000" y2="370.000000" stroke-opacity="0.5"/><text x="522.000000" y="250.000000">    15.00</text><line stroke = "red" x1="586.000000" y1="10.000000" x2="586.000000" y2="370.000000" stroke-opacity="0.5"/><text x="586.000000" y="250.000000">    20.00</text><line stroke = "red" x1="650.000000" y1="10.000000" x2="650.000000" y2="370.000000" stroke-opacity="0.5"/><text x="650.000000" y="250.000000">    25.00</text><line stroke = "red" x1="10.000000" y1="370.000000" x2="650.000000" y2="370.000000" stroke-opacity="0.5"/><text x="330.000000" y="370.000000">  -100.00</text><line stroke = "red" x1="10.000000" y1="334.000000" x2="650.000000" y2="334.000000" stroke-opacity="0.5"/><text x="330.000000" y="334.000000">   -70.00</text><line stroke = "red" x1="10.000000" y1="298.000000" x2="650.000000" y2="298.000000" stroke-opacity="0.5"/><text x="330.000000" y="298.000000">   -40.00</text><line stroke = "red" x1="10.000000" y1="262.000000" x2="650.000000" y2="262.000000" stroke-opacity="0.5"/><text x="330.000000" y="262.000000">   -10.00</text><line stroke = "red" x1="10.000000" y1="226.000000" x2="650.000000" y2="226.000000" stroke-opacity="0.5"/><text x="330.000000" y="226.000000">    20.00</text><line stroke = "red" x1="10.000000" y1="190.000000" x2="650.000000" y2="190.000000" stroke-opacity="0.5"/><text x="330.000000" y="190.000000">    50.00</text><line stroke = "red" x1="10.000000" y1="154.000000" x2="650.000000" y2="154.000000" stroke-opacity="0.5"/><text x="330.000000" y="154.000000">    80.00</text><line stroke = "red" x1="10.000000" y1="118.000000" x2="650.000000" y2="118.000000" stroke-opacity="0.5"/><text x="330.000000" y="118.000000">   110.00</text><line stroke = "red" x1="10.000000" y1="82.000000" x2="650.000000" y2="82.000000" stroke-opacity="0.5"/><text x="330.000000" y="82.000000">   140.00</text><line stroke = "red" x1="10.000000" y1="46.000000" x2="650.000000" y2="46.000000" stroke-opacity="0.5"/><text x="330.000000" y="46.000000">   170.00</text><line stroke = "red" x1="10.000000" y1="10.000000" x2="650.000000" y2="10.000000" stroke-opacity="0.5"/><text x="330.000000" y="10.000000">   200.00</text><line stroke = "black" x1="330.000000" y1="10.000000" x2="330.000000" y2="370.000000"/><line stroke = "black" x1="10.000000" y1="250.000000" x2="650.000000" y2="250.000000"/><polyline fill="none" stroke="#000000" points="80.399994, -206.300018 86.800003, -183.200012 93.199997, -160.700012 99.599991, -138.800018 106.000000, -117.500000 112.399994, -96.800018 118.800003, -76.700012 125.199997, -57.200012 131.599991, -38.300018 138.000000, -20.000000 144.399994, -2.300003 150.800003, 14.799988 157.199997, 31.299988 163.599991, 47.199997 170.000000, 62.500000 176.399994, 77.199997 182.800003, 91.299988 189.199997, 104.799988 195.599991, 117.699997 202.000000, 130.000000 208.399994, 141.699997 214.799988, 152.799988 221.199997, 163.299988 227.600006, 173.199997 234.000000, 182.500000 240.399994, 191.199997 246.799988, 199.300003 253.199997, 206.800003 259.600006, 213.699997 266.000000, 220.000000 272.399994, 225.699997 278.799988, 230.800003 285.200012, 235.300003 291.600006, 239.199997 298.000000, 242.500000 304.399994, 245.199997 310.799988, 247.300003 317.200012, 248.800003 323.600006, 249.699997 330.000000, 250.000000 336.399994, 249.699997 342.799988, 248.800003 349.200012, 247.300003 355.600006, 245.199997 362.000000, 242.500000 368.399994, 239.199997 374.799988, 235.300003 381.200012, 230.800003 387.600006, 225.699997 394.000000, 220.000000 400.399994, 213.699997 406.799988, 206.800003 413.200012, 199.300003 419.600006, 191.199997 426.000000, 182.500000 432.399994, 173.199997 438.799988, 163.299988 445.200012, 152.799988 451.600006, 141.699997 458.000000, 130.000000 464.400024, 117.699997 470.799988, 104.799988 477.200012, 91.299988 483.600006, 77.199997 490.000000, 62.500000 496.400024, 47.199997 502.799988, 31.299988 509.200012, 14.799988 515.599976, -2.300003 522.000000, -20.000000 528.400024, -38.300018 534.799988, -57.200012 541.200012, -76.700012 547.599976, -96.800018 554.000000, -117.500000 560.400024, -138.800018 566.799988, -160.700012 573.200012, -183.200012 579.599976, -206.300018 586.000000, -230.000031 "/><g font-size="10" text-anchor="start" stroke-width="1" stroke ="#000000" fill="#000000"><circle cx="80.399994" cy="706.300049" r="1"/><circle cx="86.800003" cy="683.200012" r="1"/><circle cx="93.199997" cy="660.700012" r="1"/><circle cx="99.599991" cy="638.800049" r="1"/><circle cx="106.000000" cy="617.500000" r="1"/><circle cx="112.399994" cy="596.800049" r="1"/><circle cx="118.800003" cy="576.700012" r="1"/><circle cx="125.199997" cy="557.200012" r="1"/><circle cx="131.599991" cy="538.300049" r="1"/><circle cx="138.000000" cy="520.000000" r="1"/><circle cx="144.399994" cy="502.299988" r="1"/><circle cx="150.800003" cy="485.200012" r="1"/><circle cx="157.199997" cy="468.700012" r="1"/><circle cx="163.599991" cy="452.799988" r="1"/><circle cx="170.000000" cy="437.500000" r="1"/><circle cx="176.399994" cy="422.799988" r="1"/><circle cx="182.800003" cy="408.700012" r="1"/><circle cx="189.199997" cy="395.200012" r="1"/><circle cx="195.599991" cy="382.299988" r="1"/><circle cx="202.000000" cy="370.000000" r="1"/><circle cx="208.399994" cy="358.299988" r="1"/><circle cx="214.799988" cy="347.200012" r="1"/><circle cx="221.199997" cy="336.700012" r="1"/><circle cx="227.600006" cy="326.799988" r="1"/><circle cx="234.000000" cy="317.500000" r="1"/><circle cx="240.399994" cy="308.799988" r="1"/><circle cx="246.799988" cy="300.700012" r="1"/><circle cx="253.199997" cy="293.200012" r="1"/><circle cx="259.600006" cy="286.299988" r="1"/><circle cx="266.000000" cy="280.000000" r="1"/><circle cx="272.399994" cy="274.299988" r="1"/><circle cx="278.799988" cy="269.200012" r="1"/><circle cx="285.200012" cy="264.700012" r="1"/><circle cx="291.600006" cy="260.799988" r="1"/><circle cx="298.000000" cy="257.500000" r="1"/><circle cx="304.399994" cy="254.800003" r="1"/><circle cx="310.799988" cy="252.699997" r="1"/><circle cx="317.200012" cy="251.199997" r="1"/><circle cx="323.600006" cy="250.300003" r="1"/><circle cx="330.000000" cy="250.000000" r="1"/><circle cx="336.399994" cy="250.300003" r="1"/><circle cx="342.799988" cy="251.199997" r="1"/><circle cx="349.200012" cy="252.699997" r="1"/><circle cx="355.600006" cy="254.800003" r="1"/><circle cx="362.000000" cy="257.500000" r="1"/><circle cx="368.399994" cy="260.799988" r="1"/><circle cx="374.799988" cy="264.700012" r="1"/><circle cx="381.200012" cy="269.200012" r="1"/><circle cx="387.600006" cy="274.299988" r="1"/><circle cx="394.000000" cy="280.000000" r="1"/><circle cx="400.399994" cy="286.299988" r="1"/><circle cx="406.799988" cy="293.200012" r="1"/><circle cx="413.200012" cy="300.700012" r="1"/><circle cx="419.600006" cy="308.799988" r="1"/><circle cx="426.000000" cy="317.500000" r="1"/><circle cx="432.399994" cy="326.799988" r="1"/><circle cx="438.799988" cy="336.700012" r="1"/><circle cx="445.200012" cy="347.200012" r="1"/><circle cx="451.600006" cy="358.299988" r="1"/><circle cx="458.000000" cy="370.000000" r="1"/><circle cx="464.400024" cy="382.299988" r="1"/><circle cx="470.799988" cy="395.200012" r="1"/><circle cx="477.200012" cy="408.700012" r="1"/><circle cx="483.600006" cy="422.799988" r="1"/><circle cx="490.000000" cy="437.500000" r="1"/><circle cx="496.400024" cy="452.799988" r="1"/><circle cx="502.799988" cy="468.700012" r="1"/><circle cx="509.200012" cy="485.200012" r="1"/><circle cx="515.599976" cy="502.299988" r="1"/><circle cx="522.000000" cy="520.000000" r="1"/><circle cx="528.400024" cy="538.300049" r="1"/><circle cx="534.799988" cy="557.200012" r="1"/><circle cx="541.200012" cy="576.700012" r="1"/><circle cx="547.599976" cy="596.800049" r="1"/><circle cx="554.000000" cy="617.500000" r="1"/><circle cx="560.400024" cy="638.800049" r="1"/><circle cx="566.799988" cy="660.700012" r="1"/><circle cx="573.200012" cy="683.200012" r="1"/><circle cx="579.599976" cy="706.300049" r="1"/><circle cx="586.000000" cy="730.000000" r="1"/></g></svg>