<?xml version="1.0" encoding="UTF-8" ?><!--THIS DOCUMENT WAS GENERATED WITH CGLIB CREATED BY FULLNITROUS RIGHTS RESERVED TO VOIDZEHN HTTPS://MDPP.XYZ HTTPS://VOIDZEHN.COM HTTPS://CGLIB.XYZ HTTPS://FULLNITROUS.COM--><svg xmlns="http://www.w3.org/2000/svg" version="1.1" viewBox="0 0 740.000000 460.000000" stroke-width="1"><defs><clipPath id="fuckyou"><rect x="50.000000" y="50.000000" width="640.000000" height="360.000000"/></clipPath></defs><g stroke = "#dcdcdc"><line x1="50.000000" y1="50.000000" x2="50.000000" y2="410.000000"/><line x1="178.000000" y1="50.000000" x2="178.000000" y2="410.000000"/><line x1="306.000000" y1="50.000000" x2="306.000000" y2="410.000000"/><line x1="434.000000" y1="50.000000" x2="434.000000" y2="410.000000"/><line x1="562.000000" y1="50.000000" x2="562.000000" y2="410.000000"/><line x1="690.000000" y1="50.000000" x2="690.000000" y2="410.000000"/><line x1="50.000000" y1="410.000000" x2="690.000000" y2="410.000000"/><line x1="50.000000" y1="338.000000" x2="690.000000" y2="338.000000"/><line x1="50.000000" y1="266.000000" x2="690.000000" y2="266.000000"/><line x1="50.000000" y1="194.000000" x2="690.000000" y2="194.000000"/><line x1="50.000000" y1="122.000000" x2="690.000000" y2="122.000000"/><line x1="50.000000" y1="50.000000" x2="690.000000" y2="50.000000"/></g><g text-anchor = "end" dominant-baseline="hanging" font-size="12"><text x="50.000000" y="235.000000" transform="rotate(-30.000000, 50.000000, 230.000000)" >   -25.00</text><text x="178.000000" y="235.000000" transform="rotate(-30.000000, 178.000000, 230.000000)" >   -15.00</text><text x="306.000000" y="235.000000" transform="rotate(-30.000000, 306.000000, 230.000000)" >    -5.00</text><text x="434.000000" y="235.000000" transform="rotate(-30.000000, 434.000000, 230.000000)" >     5.00</text><text x="562.000000" y="235.000000" transform="rotate(-30.000000, 562.000000, 230.000000)" >    15.00</text><text x="690.000000" y="235.000000" transform="rotate(-30.000000, 690.000000, 230.000000)" >    25.00</text></g><g text-anchor = "end" font-size="12"><text x="365.000000" y="410.000000">  -200.00</text><text x="365.000000" y="338.000000">  -120.00</text><text x="365.000000" y="266.000000">   -40.00</text><text x="365.000000" y="194.000000">    40.00</text><text x="365.000000" y="122.000000">   120.00</text><text x="365.000000" y="50.000000">   200.00</text></g><g stroke = "#646464"><line x1="370.000000" y1="50.000000" x2="370.000000" y2="410.000000"/><line x1="50.000000" y1="230.000000" x2="690.000000" y2="230.000000"/></g><g clip-path="url(#fuckyou)"><polyline fill="none" stroke="#ff0000" points="120.399994, -112.225006 126.800003, -94.899994 133.199997, -78.024994 139.599991, -61.600006 146.000000, -45.625000 152.399994, -30.100006 158.800003, -15.024994 165.199997, -0.399994 171.599991, 13.775009 178.000000, 27.500000 184.399994, 40.775009 190.800003, 53.600006 197.199997, 65.975006 203.599991, 77.900009 210.000000, 89.375000 216.399994, 100.400009 222.800003, 110.975006 229.199997, 121.100006 235.599991, 130.774994 242.000000, 140.000000 248.399994, 148.774994 254.799988, 157.100006 261.200012, 164.975006 267.600006, 172.399994 274.000000, 179.375000 280.399994, 185.899994 286.799988, 191.975006 293.200012, 197.600006 299.600006, 202.774994 306.000000, 207.500000 312.399994, 211.774994 318.799988, 215.600006 325.200012, 218.975006 331.600006, 221.899994 338.000000, 224.375000 344.399994, 226.399994 350.799988, 227.975006 357.200012, 229.100006 363.600006, 229.774994 370.000000, 230.000000 376.399994, 229.774994 382.799988, 229.100006 389.200012, 227.975006 395.600006, 226.399994 402.000000, 224.375000 408.399994, 221.899994 414.799988, 218.975006 421.200012, 215.600006 427.600006, 211.774994 434.000000, 207.500000 440.399994, 202.774994 446.799988, 197.600006 453.200012, 191.975006 459.600006, 185.899994 466.000000, 179.375000 472.399994, 172.399994 478.799988, 164.975006 485.200012, 157.100006 491.600006, 148.774994 498.000000, 140.000000 504.400024, 130.774994 510.799988, 121.100006 517.200012, 110.975006 523.599976, 100.400009 530.000000, 89.375000 536.400024, 77.900009 542.799988, 65.975006 549.200012, 53.600006 555.599976, 40.775009 562.000000, 27.500000 568.400024, 13.775009 574.799988, -0.399994 581.200012, -15.024994 587.599976, -30.100006 594.000000, -45.625000 600.400024, -61.600006 606.799988, -78.024994 613.200012, -94.899994 619.599976, -112.225006 626.000000, -130.000000 "/><g font-size="10" text-anchor="start" stroke-width="1" stroke ="#0000ff" fill="#0000ff"><circle cx="120.399994" cy="-6443.387207" r="1"/><circle cx="126.800003" cy="-5943.099609" r="1"/><circle cx="133.199997" cy="-5468.462402" r="1"/><circle cx="139.599991" cy="-5018.799805" r="1"/><circle cx="146.000000" cy="-4593.437500" r="1"/><circle cx="152.399994" cy="-4191.699707" r="1"/><circle cx="158.800003" cy="-3812.912354" r="1"/><circle cx="165.199997" cy="-3456.399902" r="1"/><circle cx="171.599991" cy="-3121.487305" r="1"/><circle cx="178.000000" cy="-2807.500000" r="1"/><circle cx="184.399994" cy="-2513.762451" r="1"/><circle cx="190.800003" cy="-2239.599854" r="1"/><circle cx="197.199997" cy="-1984.337402" r="1"/><circle cx="203.599991" cy="-1747.299927" r="1"/><circle cx="210.000000" cy="-1527.812500" r="1"/><circle cx="216.399994" cy="-1325.199951" r="1"/><circle cx="222.800003" cy="-1138.787476" r="1"/><circle cx="229.199997" cy="-967.900024" r="1"/><circle cx="235.599991" cy="-811.862427" r="1"/><circle cx="242.000000" cy="-670.000000" r="1"/><circle cx="248.399994" cy="-541.637451" r="1"/><circle cx="254.799988" cy="-426.099976" r="1"/><circle cx="261.200012" cy="-322.712463" r="1"/><circle cx="267.600006" cy="-230.799988" r="1"/><circle cx="274.000000" cy="-149.687500" r="1"/><circle cx="280.399994" cy="-78.699982" r="1"/><circle cx="286.799988" cy="-17.162491" r="1"/><circle cx="293.200012" cy="35.600006" r="1"/><circle cx="299.600006" cy="80.262497" r="1"/><circle cx="306.000000" cy="117.500000" r="1"/><circle cx="312.399994" cy="147.987503" r="1"/><circle cx="318.799988" cy="172.399994" r="1"/><circle cx="325.200012" cy="191.412506" r="1"/><circle cx="331.600006" cy="205.699997" r="1"/><circle cx="338.000000" cy="215.937500" r="1"/><circle cx="344.399994" cy="222.800003" r="1"/><circle cx="350.799988" cy="226.962494" r="1"/><circle cx="357.200012" cy="229.100006" r="1"/><circle cx="363.600006" cy="229.887497" r="1"/><circle cx="370.000000" cy="230.000000" r="1"/><circle cx="376.399994" cy="230.112503" r="1"/><circle cx="382.799988" cy="230.899994" r="1"/><circle cx="389.200012" cy="233.037506" r="1"/><circle cx="395.600006" cy="237.199997" r="1"/><circle cx="402.000000" cy="244.062500" r="1"/><circle cx="408.399994" cy="254.300003" r="1"/><circle cx="414.799988" cy="268.587494" r="1"/><circle cx="421.200012" cy="287.600006" r="1"/><circle cx="427.600006" cy="312.012512" r="1"/><circle cx="434.000000" cy="342.500000" r="1"/><circle cx="440.399994" cy="379.737488" r="1"/><circle cx="446.799988" cy="424.399994" r="1"/><circle cx="453.200012" cy="477.162476" r="1"/><circle cx="459.600006" cy="538.699951" r="1"/><circle cx="466.000000" cy="609.687500" r="1"/><circle cx="472.399994" cy="690.799988" r="1"/><circle cx="478.799988" cy="782.712463" r="1"/><circle cx="485.200012" cy="886.099976" r="1"/><circle cx="491.600006" cy="1001.637451" r="1"/><circle cx="498.000000" cy="1130.000000" r="1"/><circle cx="504.400024" cy="1271.862427" r="1"/><circle cx="510.799988" cy="1427.900024" r="1"/><circle cx="517.200012" cy="1598.787476" r="1"/><circle cx="523.599976" cy="1785.199951" r="1"/><circle cx="530.000000" cy="1987.812500" r="1"/><circle cx="536.400024" cy="2207.299805" r="1"/><circle cx="542.799988" cy="2444.337402" r="1"/><circle cx="549.200012" cy="2699.599854" r="1"/><circle cx="555.599976" cy="2973.762451" r="1"/><circle cx="562.000000" cy="3267.500000" r="1"/><circle cx="568.400024" cy="3581.487305" r="1"/><circle cx="574.799988" cy="3916.399902" r="1"/><circle cx="581.200012" cy="4272.912109" r="1"/><circle cx="587.599976" cy="4651.699707" r="1"/><circle cx="594.000000" cy="5053.437500" r="1"/><circle cx="600.400024" cy="5478.799805" r="1"/><circle cx="606.799988" cy="5928.462402" r="1"/><circle cx="613.200012" cy="6403.099609" r="1"/><circle cx="619.599976" cy="6903.387207" r="1"/><circle cx="626.000000" cy="7430.000000" r="1"/></g></g></svg>