<?xml version="1.0" encoding="UTF-8" ?><svg xmlns="http://www.w3.org/2000/svg" version="1.1" viewBox="0 0 520.000000 520.000000" stroke-width="2"><rect stroke="none" width="100%" height="100%" fill="#1e1e1e"/><g font-size="10" text-anchor="start" stroke-width="1" stroke ="#3c3c3c" fill="#3c3c3c"><circle cx="35.000000" cy="303.999992" r="2"/><circle cx="60.000000" cy="303.999992" r="2"/><circle cx="85.000000" cy="303.999992" r="2"/><circle cx="110.000000" cy="303.999992" r="2"/><circle cx="135.000000" cy="303.999992" r="2"/><circle cx="160.000000" cy="303.999992" r="2"/><circle cx="185.000000" cy="303.999992" r="2"/><circle cx="210.000000" cy="303.999992" r="2"/><circle cx="235.000000" cy="303.999992" r="2"/><circle cx="260.000000" cy="303.999992" r="2"/><circle cx="285.000000" cy="303.999992" r="2"/><circle cx="310.000000" cy="303.999992" r="2"/><circle cx="335.000000" cy="303.999992" r="2"/><circle cx="360.000000" cy="303.999992" r="2"/><circle cx="385.000000" cy="303.999992" r="2"/><circle cx="410.000000" cy="303.999992" r="2"/><circle cx="435.000000" cy="303.999992" r="2"/><circle cx="460.000000" cy="303.999992" r="2"/><circle cx="485.000000" cy="303.999992" r="2"/><circle cx="160.000000" cy="20.000000" r="2"/><circle cx="160.000000" cy="30.000000" r="2"/><circle cx="160.000000" cy="40.000000" r="2"/><circle cx="160.000000" cy="50.000000" r="2"/><circle cx="160.000000" cy="60.000000" r="2"/><circle cx="160.000000" cy="70.000000" r="2"/><circle cx="160.000000" cy="80.000000" r="2"/><circle cx="160.000000" cy="90.000000" r="2"/><circle cx="160.000000" cy="100.000000" r="2"/><circle cx="160.000000" cy="110.000000" r="2"/><circle cx="160.000000" cy="120.000000" r="2"/><circle cx="160.000000" cy="130.000000" r="2"/><circle cx="160.000000" cy="140.000000" r="2"/><circle cx="160.000000" cy="150.000000" r="2"/><circle cx="160.000000" cy="160.000000" r="2"/><circle cx="160.000000" cy="170.000000" r="2"/><circle cx="160.000000" cy="180.000000" r="2"/><circle cx="160.000000" cy="190.000000" r="2"/><circle cx="160.000000" cy="200.000000" r="2"/><circle cx="160.000000" cy="210.000000" r="2"/><circle cx="160.000000" cy="220.000000" r="2"/><circle cx="160.000000" cy="230.000000" r="2"/><circle cx="160.000000" cy="240.000000" r="2"/><circle cx="160.000000" cy="250.000000" r="2"/><circle cx="160.000000" cy="260.000000" r="2"/><circle cx="160.000000" cy="270.000000" r="2"/><circle cx="160.000000" cy="280.000000" r="2"/><circle cx="160.000000" cy="290.000000" r="2"/><circle cx="160.000000" cy="300.000000" r="2"/><circle cx="160.000000" cy="310.000000" r="2"/><circle cx="160.000000" cy="320.000000" r="2"/><circle cx="160.000000" cy="330.000000" r="2"/><circle cx="160.000000" cy="340.000000" r="2"/><circle cx="160.000000" cy="350.000000" r="2"/><circle cx="160.000000" cy="360.000000" r="2"/><circle cx="160.000000" cy="370.000000" r="2"/><circle cx="160.000000" cy="380.000000" r="2"/><circle cx="160.000000" cy="390.000000" r="2"/><circle cx="160.000000" cy="400.000000" r="2"/><circle cx="160.000000" cy="410.000000" r="2"/><circle cx="160.000000" cy="420.000000" r="2"/></g><polyline fill="none" points="160.000000, 10.000000 160.000000, 430.000000 " stroke = "#3c3c3c"/><polyline fill="none" points="10.000000, 303.999992 510.000000, 303.999992 " stroke = "#3c3c3c"/><text x="60.000000" y="460.000000">x^2</text><polyline fill="none" stroke="#ff2d28" points="22.500000,  1.499992 35.000000, 53.999992 47.500000, 101.499992 60.000000, 144.000000 72.500000, 181.500000 85.000000, 214.000000 97.500000, 241.500000 110.000000, 264.000000 122.500000, 281.500000 135.000000, 294.000000 147.500000, 301.500000 160.000000, 304.000000 172.500000, 301.500000 185.000000, 294.000000 197.500000, 281.500000 210.000000, 264.000000 222.500000, 241.500000 235.000000, 214.000000 247.500000, 181.500000 260.000000, 144.000000 272.500000, 101.499992 285.000000, 53.999992 297.500000,  1.499992 "/><text x="60.000000" y="500.000000">-x^2</text><g font-size="10" text-anchor="start" stroke-width="1" stroke ="#c8c85a" fill="#c8c85a"><circle cx="85.000000" cy="394.000000" r="1"/><circle cx="97.500000" cy="366.500000" r="1"/><circle cx="110.000000" cy="344.000000" r="1"/><circle cx="122.500000" cy="326.500000" r="1"/><circle cx="135.000000" cy="314.000000" r="1"/><circle cx="147.500000" cy="306.500000" r="1"/><circle cx="160.000000" cy="304.000000" r="1"/><circle cx="172.500000" cy="306.500000" r="1"/><circle cx="185.000000" cy="314.000000" r="1"/><circle cx="197.500000" cy="326.500000" r="1"/><circle cx="210.000000" cy="344.000000" r="1"/><circle cx="222.500000" cy="366.500000" r="1"/><circle cx="235.000000" cy="394.000000" r="1"/></g></svg>