<?xml version="1.0" encoding="UTF-8" ?><!--THIS DOCUMENT WAS GENERATED WITH CGLIB CREATED BY FULLNITROUS RIGHTS RESERVED TO VOIDZEHN HTTPS://MDPP.XYZ HTTPS://VOIDZEHN.COM HTTPS://CGLIB.XYZ HTTPS://FULLNITROUS.COM--><svg xmlns="http://www.w3.org/2000/svg" style ="font-family: sans-serif;" version="1.1" viewBox="0 0 740.000000 460.000000" stroke-width="1"><defs><clipPath id="fuckyou"><rect x="50.000000" y="50.000000" width="640.000000" height="360.000000"/></clipPath></defs><g stroke = "#dcdcdc"><line x1="50.000000" y1="50.000000" x2="50.000000" y2="410.000000"/><line x1="178.000000" y1="50.000000" x2="178.000000" y2="410.000000"/><line x1="306.000000" y1="50.000000" x2="306.000000" y2="410.000000"/><line x1="434.000000" y1="50.000000" x2="434.000000" y2="410.000000"/><line x1="562.000000" y1="50.000000" x2="562.000000" y2="410.000000"/><line x1="690.000000" y1="50.000000" x2="690.000000" y2="410.000000"/></g><g text-anchor = "end" dominant-baseline="hanging" font-size="12"><text x="50.000000" y="415.000000" transform="rotate(-30.000000, 50.000000, 410.000000)" >  -100.00</text><text x="178.000000" y="415.000000" transform="rotate(-30.000000, 178.000000, 410.000000)" >   -60.00</text><text x="306.000000" y="415.000000" transform="rotate(-30.000000, 306.000000, 410.000000)" >   -20.00</text><text x="434.000000" y="415.000000" transform="rotate(-30.000000, 434.000000, 410.000000)" >    20.00</text><text x="562.000000" y="415.000000" transform="rotate(-30.000000, 562.000000, 410.000000)" >    60.00</text><text x="690.000000" y="415.000000" transform="rotate(-30.000000, 690.000000, 410.000000)" >   100.00</text></g><g stroke = "#646464"><line x1="370.000000" y1="50.000000" x2="370.000000" y2="410.000000"/><line x1="50.000000" y1="410.000000" x2="690.000000" y2="410.000000"/></g><g dominant-baseline="middle" font-size="12"><g dominant-baseline="middle"><rect fill="#df65b2" x="370.000000" y="50.000000" width="160.000000" height="14.666667"/><text x="535.000000" y="57.333333">     50.0</text><rect fill="#d467b6" x="370.000000" y="74.666672" width="128.000000" height="14.666667"/><text x="503.000000" y="82.000005">     40.0</text><rect fill="#c969ba" x="370.000000" y="99.333336" width="96.000000" height="14.666667"/><text x="471.000000" y="106.666669">     30.0</text><rect fill="#bd6bbe" x="370.000000" y="124.000000" width="64.000000" height="14.666667"/><text x="439.000000" y="131.333333">     20.0</text><rect fill="#b26dc2" x="370.000000" y="148.666672" width="32.000000" height="14.666667"/><text x="407.000000" y="156.000005">     10.0</text></g><rect fill="#a76fc6" x="370.000000" y="173.333344" width="-0.000000" height="14.666667"/><text x="375.000000" y="180.666677">      0.0</text><g dominant-baseline="middle" text-anchor="end"><rect fill="#9c71ca" x="338.000000" y="198.000000" width="32.000000" height="14.666667"/><text x="333.000000" y="205.333333">    -10.0</text><rect fill="#9073ce" x="306.000000" y="222.666672" width="64.000000" height="14.666667"/><text x="301.000000" y="230.000005">    -20.0</text><rect fill="#8575d2" x="274.000000" y="247.333344" width="96.000000" height="14.666667"/><text x="269.000000" y="254.666677">    -30.0</text><rect fill="#7a77d6" x="242.000000" y="272.000000" width="128.000000" height="14.666667"/><text x="237.000000" y="279.333333">    -40.0</text><rect fill="#6f79da" x="210.000000" y="296.666687" width="160.000000" height="14.666667"/><text x="205.000000" y="304.000021">    -50.0</text><rect fill="#637bde" x="178.000000" y="321.333344" width="192.000000" height="14.666667"/><text x="173.000000" y="328.666677">    -60.0</text><rect fill="#587de2" x="146.000000" y="346.000000" width="224.000000" height="14.666667"/><text x="141.000000" y="353.333333">    -70.0</text><rect fill="#4d7fe6" x="114.000000" y="370.666687" width="256.000000" height="14.666667"/><text x="109.000000" y="378.000021">    -80.0</text><rect fill="#4182ea" x="82.000000" y="395.333344" width="288.000000" height="14.666667"/><text x="77.000000" y="402.666677">    -90.0</text><g dominant-baseline="middle" text-anchor="end"><text x="365.000000" y="57.333333">Label</text><text x="365.000000" y="82.000005">Label</text><text x="365.000000" y="106.666669">Label</text><text x="365.000000" y="131.333333">Label</text><text x="365.000000" y="156.000005">Label</text></g><text x="365.000000" y="180.666677">Label</text><g dominant-baseline="middle" text-anchor="start"><text x="375.000000" y="205.333333">Label</text><text x="375.000000" y="230.000005">Label</text><text x="375.000000" y="254.666677">Label</text><text x="375.000000" y="279.333333">Label</text><text x="375.000000" y="304.000021">Label</text><text x="375.000000" y="328.666677">Label</text><text x="375.000000" y="353.333333">Label</text><text x="375.000000" y="378.000021">Label</text><text x="375.000000" y="402.666677">Label</text></g></g></g></svg>