<?xml version="1.0" encoding="UTF-8" ?><!--THIS DOCUMENT WAS GENERATED WITH CGLIB CREATED BY FULLNITROUS RIGHTS RESERVED TO VOIDZEHN HTTPS://MDPP.XYZ HTTPS://VOIDZEHN.COM HTTPS://CGLIB.XYZ HTTPS://FULLNITROUS.COM--><svg xmlns="http://www.w3.org/2000/svg" version="1.1" viewBox="0 0 740.000000 460.000000" stroke-width="1"><defs><clipPath id="fuckyou"><rect x="50.000000" y="50.000000" width="640.000000" height="360.000000"/></clipPath></defs><g stroke = "#dcdcdc"><line x1="50.000000" y1="50.000000" x2="50.000000" y2="410.000000"/><line x1="178.000000" y1="50.000000" x2="178.000000" y2="410.000000"/><line x1="306.000000" y1="50.000000" x2="306.000000" y2="410.000000"/><line x1="434.000000" y1="50.000000" x2="434.000000" y2="410.000000"/><line x1="562.000000" y1="50.000000" x2="562.000000" y2="410.000000"/><line x1="690.000000" y1="50.000000" x2="690.000000" y2="410.000000"/></g><g text-anchor = "end" dominant-baseline="hanging" font-size="12"><text x="50.000000" y="415.000000" transform="rotate(-30.000000, 50.000000, 410.000000)" >  -100.00</text><text x="178.000000" y="415.000000" transform="rotate(-30.000000, 178.000000, 410.000000)" >   -60.00</text><text x="306.000000" y="415.000000" transform="rotate(-30.000000, 306.000000, 410.000000)" >   -20.00</text><text x="434.000000" y="415.000000" transform="rotate(-30.000000, 434.000000, 410.000000)" >    20.00</text><text x="562.000000" y="415.000000" transform="rotate(-30.000000, 562.000000, 410.000000)" >    60.00</text><text x="690.000000" y="415.000000" transform="rotate(-30.000000, 690.000000, 410.000000)" >   100.00</text></g><g stroke = "#646464"><line x1="370.000000" y1="50.000000" x2="370.000000" y2="410.000000"/><line x1="50.000000" y1="410.000000" x2="690.000000" y2="410.000000"/></g><g dominant-baseline="middle" font-size="12"><g dominant-baseline="middle"><rect fill="#ce68b8" x="370.000000" y="50.000000" width="160.000000" height="51.666668"/><text x="535.000000" y="75.833334">     50.0</text><rect fill="#b26dc2" x="370.000000" y="111.666672" width="80.000000" height="51.666668"/><text x="455.000000" y="137.500006">     25.0</text></g><rect fill="#9672cc" x="370.000000" y="173.333344" width="-0.000000" height="51.666668"/><text x="375.000000" y="199.166677">      0.0</text><g dominant-baseline="middle" text-anchor="end"><rect fill="#7a77d6" x="290.000000" y="235.000000" width="80.000000" height="51.666668"/><text x="285.000000" y="260.833334">    -25.0</text><rect fill="#5e7ce0" x="210.000000" y="296.666687" width="160.000000" height="51.666668"/><text x="205.000000" y="322.500021">    -50.0</text><rect fill="#4182ea" x="130.000000" y="358.333344" width="240.000000" height="51.666668"/><text x="125.000000" y="384.166677">    -75.0</text><g dominant-baseline="middle" text-anchor="end"><text x="365.000000" y="75.833334">Label</text><text x="365.000000" y="137.500006">Label</text></g><text x="365.000000" y="199.166677">Label</text><g dominant-baseline="middle" text-anchor="start"><text x="375.000000" y="260.833334">Label</text><text x="375.000000" y="322.500021">Label</text><text x="375.000000" y="384.166677">Label</text></g></g></g></svg>