<?xml version="1.0" encoding="UTF-8" ?><!--THIS DOCUMENT WAS GENERATED WITH CGLIB CREATED BY FULLNITROUS RIGHTS RESERVED TO VOIDZEHN HTTPS://MDPP.XYZ HTTPS://VOIDZEHN.COM HTTPS://CGLIB.XYZ HTTPS://FULLNITROUS.COM--><svg xmlns="http://www.w3.org/2000/svg" style ="font-family: sans-serif;" version="1.1" viewBox="0 0 740.000000 460.000000" stroke-width="1"><defs><clipPath id="fuckyou"><rect x="50.000000" y="50.000000" width="640.000000" height="360.000000"/></clipPath></defs><g stroke = "#dcdcdc"><line x1="50.000000" y1="50.000000" x2="50.000000" y2="410.000000"/><line x1="178.000000" y1="50.000000" x2="178.000000" y2="410.000000"/><line x1="306.000000" y1="50.000000" x2="306.000000" y2="410.000000"/><line x1="434.000000" y1="50.000000" x2="434.000000" y2="410.000000"/><line x1="562.000000" y1="50.000000" x2="562.000000" y2="410.000000"/><line x1="690.000000" y1="50.000000" x2="690.000000" y2="410.000000"/></g><g text-anchor = "end" dominant-baseline="hanging" font-size="12"><text x="50.000000" y="415.000000" transform="rotate(-30.000000, 50.000000, 410.000000)" >  -100.00</text><text x="178.000000" y="415.000000" transform="rotate(-30.000000, 178.000000, 410.000000)" >   -60.00</text><text x="306.000000" y="415.000000" transform="rotate(-30.000000, 306.000000, 410.000000)" >   -20.00</text><text x="434.000000" y="415.000000" transform="rotate(-30.000000, 434.000000, 410.000000)" >    20.00</text><text x="562.000000" y="415.000000" transform="rotate(-30.000000, 562.000000, 410.000000)" >    60.00</text><text x="690.000000" y="415.000000" transform="rotate(-30.000000, 690.000000, 410.000000)" >   100.00</text></g><g stroke = "#646464"><line x1="370.000000" y1="50.000000" x2="370.000000" y2="410.000000"/><line x1="50.000000" y1="410.000000" x2="690.000000" y2="410.000000"/></g><g dominant-baseline="middle" font-size="12"><g ><rect fill="#df65b2" x="370.000000" y="50.000000" width="160.000000" height="19.333334"/><text x="535.000000" y="59.666667">     50.0</text><rect fill="#d467b6" x="370.000000" y="74.333336" width="140.800003" height="19.333334"/><text x="515.799988" y="84.000003">     44.0</text><rect fill="#c969ba" x="370.000000" y="98.666672" width="121.599998" height="19.333334"/><text x="496.600006" y="108.333339">     38.0</text><rect fill="#bd6bbe" x="370.000000" y="123.000000" width="102.399994" height="19.333334"/><text x="477.399994" y="132.666667">     32.0</text><rect fill="#b26dc2" x="370.000000" y="147.333344" width="83.199997" height="19.333334"/><text x="458.200012" y="157.000010">     26.0</text><rect fill="#a76fc6" x="370.000000" y="171.666672" width="64.000000" height="19.333334"/><text x="439.000000" y="181.333339">     20.0</text><rect fill="#9c71ca" x="370.000000" y="196.000000" width="44.799999" height="19.333334"/><text x="419.799988" y="205.666667">     14.0</text><rect fill="#9073ce" x="370.000000" y="220.333344" width="25.599998" height="19.333334"/><text x="400.600006" y="230.000010">      8.0</text><rect fill="#8575d2" x="370.000000" y="244.666672" width=" 6.400000" height="19.333334"/><text x="381.399994" y="254.333339">      2.0</text></g><g text-anchor="end"><rect fill="#7a77d6" x="357.200012" y="269.000000" width="12.799999" height="19.333334"/><text x="353.000000" y="278.666667">     -4.0</text><rect fill="#6f79da" x="338.000000" y="293.333344" width="32.000000" height="19.333334"/><text x="333.000000" y="303.000010">    -10.0</text><rect fill="#637bde" x="318.799988" y="317.666687" width="51.199997" height="19.333334"/><text x="314.000000" y="327.333354">    -16.0</text><rect fill="#587de2" x="299.600006" y="342.000000" width="70.400002" height="19.333334"/><text x="295.000000" y="351.666667">    -22.0</text><rect fill="#4d7fe6" x="280.399994" y="366.333344" width="89.599998" height="19.333334"/><text x="276.000000" y="376.000010">    -28.0</text><rect fill="#4182ea" x="261.200012" y="390.666687" width="108.800003" height="19.333334"/><text x="257.000000" y="400.333354">    -34.0</text></g><g text-anchor="end"><text x="365.000000" y="59.666667">Label</text><text x="365.000000" y="84.000003">Label</text><text x="365.000000" y="108.333339">Label</text><text x="365.000000" y="132.666667">Label</text><text x="365.000000" y="157.000010">Label</text><text x="365.000000" y="181.333339">Label</text><text x="365.000000" y="205.666667">Label</text><text x="365.000000" y="230.000010">Label</text><text x="365.000000" y="254.333339">Label</text></g><g ><text x="375.000000" y="278.666667">Label</text><text x="375.000000" y="303.000010">Label</text><text x="375.000000" y="327.333354">Label</text><text x="375.000000" y="351.666667">Label</text><text x="375.000000" y="376.000010">Label</text><text x="375.000000" y="400.333354">Label</text></g></g></svg>