<?xml version="1.0" encoding="UTF-8" ?><svg xmlns="http://www.w3.org/2000/svg" version="1.1" viewBox="0 0 740.000000 460.000000" stroke-width="1"><path d="M 500.000000 230.000000 A 130.000000 130.000000 0 0 1 410.172211 353.637360 L 370.000000 230.000000 " fill = "#be2329"></path><line x1="475.172211" y1="306.412079" x2="595.172241" y2="306.412079"/><text x="595.172241" y="306.412079">label</text><text x="459.396362" y="294.950287">     20.0%</text><path d="M 410.172211 353.637360 A 130.000000 130.000000 0 0 1 264.827789 306.412079 L 370.000000 230.000000 " fill = "#6ce184"></path><line x1="329.827789" y1="353.637360" x2="209.827789" y2="353.637360"/><text x="209.827789" y="353.637360">label</text><text x="335.853607" y="335.091736">     20.0%</text><path d="M 264.827789 306.412079 A 130.000000 130.000000 0 0 1 264.827789 153.587906 L 370.000000 230.000000 " fill = "#52aed6"></path><line x1="240.000000" y1="229.999985" x2="120.000000" y2="229.999985"/><text x="120.000000" y="229.999985">label</text><text x="259.500000" y="229.999985">     20.0%</text><path d="M 264.827789 153.587906 A 130.000000 130.000000 0 0 1 410.172241 106.362656 L 370.000000 230.000000 " fill = "#f14990"></path><line x1="329.827850" y1="106.362640" x2="209.827850" y2="106.362640"/><text x="209.827850" y="106.362640">label</text><text x="335.853668" y="124.908241">     20.0%</text><path d="M 410.172241 106.362656 A 130.000000 130.000000 0 0 1 500.000000 230.000015 L 370.000000 230.000000 " fill = "#e9bbf1"></path><line x1="475.172241" y1="153.587952" x2="595.172241" y2="153.587952"/><text x="595.172241" y="153.587952">label</text><text x="459.396393" y="165.049759">     20.0%</text></svg>