<?xml version="1.0" encoding="UTF-8" ?><svg xmlns="http://www.w3.org/2000/svg" version="1.1" viewBox="0 0 520.000000 320.000000" stroke-width="10"><rect stroke="none" width="100%" height="100%" fill="#1e1e1e"/><path d="M 300.000000 160.000000 A 140.000000 140.000000 0 0 1 21.103943 177.546663 L 160.000000 160.000000 " fill = "#2923be" fill-opacity = " 0.750000"></path><path d="M 300.000000 160.000000 A 140.000000 140.000000 0 0 1 21.103943 177.546663" fill = "none" stroke = "#2923be"></path><path d="M 21.103943 177.546663 A 140.000000 140.000000 0 0 1 295.601638 125.183397 L 160.000000 160.000000 " fill = "#84e16c" fill-opacity = " 0.750000"></path><path d="M 21.103943 177.546663 A 140.000000 140.000000 0 0 1 295.601638 125.183397" fill = "none" stroke = "#84e16c"></path><path d="M 295.601638 125.183397 A 140.000000 140.000000 0 0 1 300.000000 159.999999 L 160.000000 160.000000 " fill = "#d6ae52" fill-opacity = " 0.750000"></path><path d="M 295.601638 125.183397 A 140.000000 140.000000 0 0 1 300.000000 159.999999" fill = "none" stroke = "#d6ae52"></path></svg>