<?xml version="1.0" encoding="UTF-8" ?><svg xmlns="http://www.w3.org/2000/svg" version="1.1" viewBox="0 0 660.000000 380.000000" stroke-width="1"><path d="M 500.000000 190.000000 A 170.000000 170.000000 0 0 1 382.532898 351.679596 L 330.000000 190.000000 " fill = "#be2329"></path><line stroke = "red" x1="467.532898" y1="289.923492" x2="547.532898" y2="289.923492" stroke-opacity="0.5"/><text x="547.532898" y="289.923492">label</text><text x="446.902954" y="274.934967">     20.0%</text><path d="M 382.532898 351.679596 A 170.000000 170.000000 0 0 1 192.467102 289.923492 L 330.000000 190.000000 " fill = "#6ce184"></path><line stroke = "red" x1="277.467102" y1="351.679596" x2="197.467102" y2="351.679596" stroke-opacity="0.5"/><text x="197.467102" y="351.679596">label</text><text x="285.347046" y="327.427673">     20.0%</text><path d="M 192.467102 289.923492 A 170.000000 170.000000 0 0 1 192.467117 90.076492 L 330.000000 190.000000 " fill = "#52aed6"></path><line stroke = "red" x1="160.000000" y1="189.999985" x2="80.000000" y2="189.999985" stroke-opacity="0.5"/><text x="80.000000" y="189.999985">label</text><text x="185.500000" y="189.999985">     20.0%</text><path d="M 192.467117 90.076492 A 170.000000 170.000000 0 0 1 382.532898 28.320400 L 330.000000 190.000000 " fill = "#f14990"></path><line stroke = "red" x1="277.467163" y1="28.320374" x2="197.467163" y2="28.320374" stroke-opacity="0.5"/><text x="197.467163" y="28.320374">label</text><text x="285.347107" y="52.572319">     20.0%</text><path d="M 382.532898 28.320400 A 170.000000 170.000000 0 0 1 500.000000 190.000031 L 330.000000 190.000000 " fill = "#e9bbf1"></path><line stroke = "red" x1="467.532928" y1="90.076561" x2="547.532959" y2="90.076561" stroke-opacity="0.5"/><text x="547.532959" y="90.076561">label</text><text x="446.902985" y="105.065079">     20.0%</text></svg>