<?xml version="1.0" encoding="UTF-8" ?><!--THIS DOCUMENT WAS GENERATED WITH CGLIB CREATED BY FULLNITROUS RIGHTS RESERVED TO VOIDZEHN HTTPS://MDPP.XYZ HTTPS://VOIDZEHN.COM HTTPS://CGLIB.XYZ HTTPS://FULLNITROUS.COM--><svg xmlns="http://www.w3.org/2000/svg" style ="font-family: sans-serif;" version="1.1" viewBox="0 0 670.000000 390.000000" stroke-width="1"><defs><clipPath id="fuckyou"><rect x="15.000000" y="15.000000" width="640.000000" height="360.000000"/></clipPath></defs><g font-size="12"><g clip-path="url(#fuckyou)"><path d="M 500.000000 195.000000 A 165.000000 165.000000 0 0 1 450.444458 312.888000 L 335.000000 195.000000 " fill = "#df65b2"></path><path d="M 485.734985 262.111542 A 165.000000 165.000000 0 0 1 392.514404 349.651520 L 335.000000 195.000000 " fill = "#d467b6"></path><path d="M 445.406555 317.618896 A 165.000000 165.000000 0 0 1 324.639587 359.674408 L 335.000000 195.000000 " fill = "#c969ba"></path><path d="M 385.987793 351.924347 A 165.000000 165.000000 0 0 1 258.556122 341.223572 L 335.000000 195.000000 " fill = "#bd6bbe"></path><path d="M 317.752808 359.096100 A 165.000000 165.000000 0 0 1 205.690582 297.489380 L 335.000000 195.000000 " fill = "#b26dc2"></path><path d="M 252.499985 337.894196 A 165.000000 165.000000 0 0 1 175.183777 236.033829 L 335.000000 195.000000 " fill = "#a76fc6"></path><path d="M 201.512192 291.984558 A 165.000000 165.000000 0 0 1 172.310654 167.483200 L 335.000000 195.000000 " fill = "#9c71ca"></path><path d="M 173.605637 229.305420 A 165.000000 165.000000 0 0 1 197.568024 103.690361 L 335.000000 195.000000 " fill = "#9073ce"></path><path d="M 173.605652 160.694550 A 165.000000 165.000000 0 0 1 246.588608 55.685871 L 335.000000 195.000000 " fill = "#8575d2"></path><path d="M 201.512207 98.015419 A 165.000000 165.000000 0 0 1 310.896332 31.770058 L 335.000000 195.000000 " fill = "#7a77d6"></path><path d="M 252.500015 52.105801 A 165.000000 165.000000 0 0 1 379.371826 36.078190 L 335.000000 195.000000 " fill = "#6f79da"></path><path d="M 317.752838 30.903885 A 165.000000 165.000000 0 0 1 440.174988 67.865349 L 335.000000 195.000000 " fill = "#637bde"></path><path d="M 385.987823 38.075684 A 165.000000 165.000000 0 0 1 482.792419 121.635170 L 335.000000 195.000000 " fill = "#587de2"></path><path d="M 445.406555 72.381119 A 165.000000 165.000000 0 0 1 499.855255 188.090485 L 335.000000 195.000000 " fill = "#4d7fe6"></path><path d="M 485.735016 127.888481 A 165.000000 165.000000 0 0 1 488.413116 255.740524 L 335.000000 195.000000 " fill = "#4182ea"></path><path d="M 500.000000 195.000000 A 165.000000 165.000000 0 0 1 485.734985 262.111542 L 335.000000 195.000000 " fill = "#df65b2"></path><g stroke="black"><g stroke="#646464"><line x1="496.394348" y1="229.305435" x2="616.394348" y2="229.305435"/><line x1="468.487793" y1="291.984589" x2="588.487793" y2="291.984589"/><line x1="417.500000" y1="337.894196" x2="537.500000" y2="337.894196"/><line x1="352.247192" y1="359.096100" x2="472.247192" y2="359.096100"/><line x1="284.012177" y1="351.924316" x2="164.012177" y2="351.924316"/><line x1="224.593445" y1="317.618896" x2="104.593445" y2="317.618896"/><line x1="184.264999" y1="262.111542" x2="64.264999" y2="262.111542"/><line x1="170.000000" y1="194.999985" x2="50.000000" y2="194.999985"/><line x1="184.265015" y1="127.888405" x2="64.265015" y2="127.888405"/><line x1="224.593491" y1="72.381065" x2="104.593491" y2="72.381065"/><line x1="284.012238" y1="38.075657" x2="164.012238" y2="38.075657"/><line x1="352.247253" y1="30.903894" x2="472.247253" y2="30.903894"/><line x1="417.500061" y1="52.105839" x2="537.500061" y2="52.105839"/><line x1="468.487854" y1="98.015488" x2="588.487854" y2="98.015488"/><line x1="496.394379" y1="160.694641" x2="616.394409" y2="160.694641"/></g></g><g text-anchor = "end"><text x="616.394348" y="224.305435">Label</text><text x="588.487793" y="286.984589">Label</text><text x="537.500000" y="332.894196">Label</text><text x="472.247192" y="354.096100">Label</text></g><text x="164.012177" y="346.924316">Label</text><text x="104.593445" y="312.618896">Label</text><text x="64.264999" y="257.111542">Label</text><text x="50.000000" y="189.999985">Label</text><text x="64.265015" y="122.888405">Label</text><text x="104.593491" y="67.381065">Label</text><text x="164.012238" y="33.075657">Label</text><g text-anchor = "end"><text x="472.247253" y="25.903894">Label</text><text x="537.500061" y="47.105839">Label</text><text x="588.487854" y="93.015488">Label</text><text x="616.394409" y="155.694641">Label</text></g><g fill="#646464" dominant-baseline="hanging"><g text-anchor = "end"><text x="616.394348" y="234.305435">      6.7%</text><text x="588.487793" y="296.984589">      6.7%</text><text x="537.500000" y="342.894196">      6.7%</text><text x="472.247192" y="364.096100">      6.7%</text></g><text x="164.012177" y="356.924316">      6.7%</text><text x="104.593445" y="322.618896">      6.7%</text><text x="64.264999" y="267.111542">      6.7%</text><text x="50.000000" y="199.999985">      6.7%</text><text x="64.265015" y="132.888397">      6.7%</text><text x="104.593491" y="77.381065">      6.7%</text><text x="164.012238" y="43.075657">      6.7%</text><g text-anchor = "end"><text x="472.247253" y="35.903893">      6.7%</text><text x="537.500061" y="57.105839">      6.7%</text><text x="588.487854" y="103.015488">      6.7%</text><text x="616.394409" y="165.694641">      6.7%</text></g></g></g></g></svg>