<?xml version="1.0" encoding="UTF-8" ?><svg xmlns="http://www.w3.org/2000/svg" version="1.1" viewBox="0 0 660.000000 380.000000" stroke-width="1"><path d="M 500.000000 190.000000 A 170.000000 170.000000 0 0 1 491.679596 242.532898 L 330.000000 190.000000 " fill = "#be2329"></path><line stroke = "red" x1="497.907013" y1="216.593857" x2="617.906982" y2="216.593857" stroke-opacity="0.5"/><text x="617.906982" y="216.593857">label</text><text x="472.720978" y="212.604782">      5.0%</text><path d="M 491.679596 242.532898 A 170.000000 170.000000 0 0 1 467.532898 289.923492 L 330.000000 190.000000 " fill = "#6ce184"></path><line stroke = "red" x1="481.471100" y1="267.178375" x2="601.471069" y2="267.178375" stroke-opacity="0.5"/><text x="601.471069" y="267.178375">label</text><text x="458.750427" y="255.601624">      5.0%</text><path d="M 467.532898 289.923492 A 170.000000 170.000000 0 0 1 429.923492 327.532898 L 330.000000 190.000000 " fill = "#52aed6"></path><line stroke = "red" x1="450.208160" y1="310.208160" x2="570.208130" y2="310.208160" stroke-opacity="0.5"/><text x="570.208130" y="310.208160">label</text><text x="432.176941" y="292.176941">      5.0%</text><path d="M 429.923492 327.532898 A 170.000000 170.000000 0 0 1 382.532898 351.679596 L 330.000000 190.000000 " fill = "#f14990"></path><line stroke = "red" x1="407.178375" y1="341.471130" x2="527.178345" y2="341.471130" stroke-opacity="0.5"/><text x="527.178345" y="341.471130">label</text><text x="395.601624" y="318.750458">      5.0%</text><path d="M 382.532898 351.679596 A 170.000000 170.000000 0 0 1 330.000000 360.000000 L 330.000000 190.000000 " fill = "#e9bbf1"></path><line stroke = "red" x1="356.593842" y1="357.907013" x2="476.593842" y2="357.907013" stroke-opacity="0.5"/><text x="476.593842" y="357.907013">label</text><text x="352.604767" y="332.720978">      5.0%</text><path d="M 330.000000 360.000000 A 170.000000 170.000000 0 0 1 277.467102 351.679596 L 330.000000 190.000000 " fill = "#a6b3eb"></path><line stroke = "red" x1="303.406128" y1="357.907013" x2="183.406128" y2="357.907013" stroke-opacity="0.5"/><text x="183.406128" y="357.907013">label</text><text x="307.395233" y="332.720978">      5.0%</text><path d="M 277.467102 351.679596 A 170.000000 170.000000 0 0 1 230.076477 327.532867 L 330.000000 190.000000 " fill = "#873cdb"></path><line stroke = "red" x1="252.821594" y1="341.471100" x2="132.821594" y2="341.471100" stroke-opacity="0.5"/><text x="132.821594" y="341.471100">label</text><text x="264.398346" y="318.750427">      5.0%</text><path d="M 230.076477 327.532867 A 170.000000 170.000000 0 0 1 192.467087 289.923462 L 330.000000 190.000000 " fill = "#993e0c"></path><line stroke = "red" x1="209.791824" y1="310.208130" x2="89.791824" y2="310.208130" stroke-opacity="0.5"/><text x="89.791824" y="310.208130">label</text><text x="227.823044" y="292.176910">      5.0%</text><path d="M 192.467087 289.923462 A 170.000000 170.000000 0 0 1 168.320389 242.532852 L 330.000000 190.000000 " fill = "#0d5e24"></path><line stroke = "red" x1="178.528870" y1="267.178314" x2="58.528870" y2="267.178314" stroke-opacity="0.5"/><text x="58.528870" y="267.178314">label</text><text x="201.249527" y="255.601578">      5.0%</text><path d="M 168.320389 242.532852 A 170.000000 170.000000 0 0 1 160.000000 189.999939 L 330.000000 190.000000 " fill = "#b7061c"></path><line stroke = "red" x1="162.092972" y1="216.593811" x2="42.092972" y2="216.593811" stroke-opacity="0.5"/><text x="42.092972" y="216.593811">label</text><text x="187.279022" y="212.604736">      5.0%</text><path d="M 160.000000 189.999939 A 170.000000 170.000000 0 0 1 168.320419 137.467041 L 330.000000 190.000000 " fill = "#b3de47"></path><line stroke = "red" x1="162.092987" y1="163.406113" x2="42.092987" y2="163.406113" stroke-opacity="0.5"/><text x="42.092987" y="163.406113">label</text><text x="187.279037" y="167.395203">      5.0%</text><path d="M 168.320419 137.467041 A 170.000000 170.000000 0 0 1 192.467163 90.076424 L 330.000000 190.000000 " fill = "#c84d12"></path><line stroke = "red" x1="178.528915" y1="112.821571" x2="58.528915" y2="112.821571" stroke-opacity="0.5"/><text x="58.528915" y="112.821571">label</text><text x="201.249573" y="124.398338">      5.0%</text><path d="M 192.467163 90.076424 A 170.000000 170.000000 0 0 1 230.076599 52.467041 L 330.000000 190.000000 " fill = "#8bbb43"></path><line stroke = "red" x1="209.791901" y1="69.791801" x2="89.791901" y2="69.791801" stroke-opacity="0.5"/><text x="89.791901" y="69.791801">label</text><text x="227.823105" y="87.823029">      5.0%</text><path d="M 230.076599 52.467041 A 170.000000 170.000000 0 0 1 277.467255 28.320349 L 330.000000 190.000000 " fill = "#031fa6"></path><line stroke = "red" x1="252.821655" y1="38.528870" x2="132.821655" y2="38.528870" stroke-opacity="0.5"/><text x="132.821655" y="38.528870">label</text><text x="264.398407" y="61.249538">      5.0%</text><path d="M 277.467255 28.320349 A 170.000000 170.000000 0 0 1 330.000153 20.000000 L 330.000000 190.000000 " fill = "#097d5a"></path><line stroke = "red" x1="303.406219" y1="22.092970" x2="183.406219" y2="22.092970" stroke-opacity="0.5"/><text x="183.406219" y="22.092970">label</text><text x="307.395294" y="47.279026">      5.0%</text><path d="M 330.000153 20.000000 A 170.000000 170.000000 0 0 1 382.532990 28.320425 L 330.000000 190.000000 " fill = "#1f2538"></path><line stroke = "red" x1="356.593964" y1="22.092997" x2="476.593964" y2="22.092997" stroke-opacity="0.5"/><text x="476.593964" y="22.092997">label</text><text x="352.604858" y="47.279049">      5.0%</text><path d="M 382.532990 28.320425 A 170.000000 170.000000 0 0 1 429.923584 52.467186 L 330.000000 190.000000 " fill = "#cbd45d"></path><line stroke = "red" x1="407.178497" y1="38.528942" x2="527.178467" y2="38.528942" stroke-opacity="0.5"/><text x="527.178467" y="38.528942">label</text><text x="395.601715" y="61.249603">      5.0%</text><path d="M 429.923584 52.467186 A 170.000000 170.000000 0 0 1 467.532990 90.076630 L 330.000000 190.000000 " fill = "#f596fc"></path><line stroke = "red" x1="450.208252" y1="69.791946" x2="570.208252" y2="69.791946" stroke-opacity="0.5"/><text x="570.208252" y="69.791946">label</text><text x="432.177002" y="87.823151">      5.0%</text><path d="M 467.532990 90.076630 A 170.000000 170.000000 0 0 1 491.679657 137.467270 L 330.000000 190.000000 " fill = "#133b45"></path><line stroke = "red" x1="481.471191" y1="112.821754" x2="601.471191" y2="112.821754" stroke-opacity="0.5"/><text x="601.471191" y="112.821754">label</text><text x="458.750519" y="124.398491">      5.0%</text><path d="M 491.679657 137.467270 A 170.000000 170.000000 0 0 1 500.000000 190.000107 L 330.000000 190.000000 " fill = "#0a890d"></path><line stroke = "red" x1="497.907043" y1="163.406326" x2="617.907043" y2="163.406326" stroke-opacity="0.5"/><text x="617.907043" y="163.406326">label</text><text x="472.720978" y="167.395370">      5.0%</text></svg>