<?xml version="1.0" encoding="UTF-8" ?><!--THIS DOCUMENT WAS GENERATED WITH CGLIB CREATED BY FULLNITROUS RIGHTS RESERVED TO VOIDZEHN HTTPS://MDPP.XYZ HTTPS://VOIDZEHN.COM HTTPS://CGLIB.XYZ HTTPS://FULLNITROUS.COM--><svg xmlns="http://www.w3.org/2000/svg" style ="font-family: sans-serif;" version="1.1" viewBox="0 0 740.000000 460.000000" stroke-width="1"><defs><clipPath id="fuckyou"><rect x="50.000000" y="50.000000" width="640.000000" height="360.000000"/></clipPath></defs><circle cx="370.000000" cy="230.000000" r="50.000000"/><g font-size="12"><g clip-path="url(#fuckyou)"><path d="M 547.552856 245.450851 A 130.000000 130.000000 0 0 1 522.725037 321.862946 L 417.552826 245.450851 " fill= "#c06abd"></path><path d="M 504.561462 346.862915 A 130.000000 130.000000 0 0 1 439.561462 394.088196 L 399.389252 270.450836 " fill= "#9672cc"></path><path d="M 374.816864 388.992706 A 130.000000 130.000000 0 0 1 211.007309 225.183136 L 334.644653 265.355347 " fill= "#6c7adb"></path><path d="M 223.663132 145.277451 A 130.000000 130.000000 0 0 1 387.472717 61.812321 L 347.300476 185.449661 " fill= "#4182ea"></path><g stroke="black"><g stroke="#646464"><line x1="493.637360" y1="270.172211" x2="613.637329" y2="270.172211"/><line x1="446.412079" y1="335.172211" x2="566.412109" y2="335.172211"/><line x1="278.076111" y1="321.923889" x2="158.076111" y2="321.923889"/><line x1="310.981262" y1="114.169136" x2="190.981262" y2="114.169136"/></g></g><g text-anchor="end"><text x="613.637329" y="265.172211">Label</text><text x="566.412109" y="330.172211">Label</text></g><g ><text x="158.076111" y="316.923889">Label</text><text x="190.981262" y="109.169136">Label</text></g><g fill="#646464" dominant-baseline="hanging"><g text-anchor="end"><text x="613.637329" y="275.172211">     10.0%</text><text x="566.412109" y="340.172211">     10.0%</text></g><g ><text x="158.076111" y="326.923889">     35.0%</text><text x="190.981262" y="119.169136">     25.0%</text></g></g></g></g></svg>