<?xml version="1.0" encoding="UTF-8" ?><svg xmlns="http://www.w3.org/2000/svg" version="1.1" viewBox="0 0 670.000000 390.000000" stroke-width="1"><defs><clipPath id="fuckyou"><rect x="15.000000" y="15.000000" width="640.000000" height="360.000000"/></clipPath></defs><g font-size="12"><g clip-path="url(#fuckyou)"><path d="M 500.000000 195.000000 A 165.000000 165.000000 0 0 1 491.924316 245.987808 L 335.000000 195.000000 " fill = "#e264b1"></path><path d="M 491.924316 245.987808 A 165.000000 165.000000 0 0 1 468.487793 291.984558 L 335.000000 195.000000 " fill = "#da66b4"></path><path d="M 468.487793 291.984558 A 165.000000 165.000000 0 0 1 431.984558 328.487793 L 335.000000 195.000000 " fill = "#d167b7"></path><path d="M 431.984558 328.487793 A 165.000000 165.000000 0 0 1 385.987793 351.924316 L 335.000000 195.000000 " fill = "#c969ba"></path><path d="M 385.987793 351.924316 A 165.000000 165.000000 0 0 1 335.000000 360.000000 L 335.000000 195.000000 " fill = "#c06abd"></path><path d="M 335.000000 360.000000 A 165.000000 165.000000 0 0 1 284.012177 351.924316 L 335.000000 195.000000 " fill = "#b86cc0"></path><path d="M 284.012177 351.924316 A 165.000000 165.000000 0 0 1 238.015411 328.487793 L 335.000000 195.000000 " fill = "#af6dc3"></path><path d="M 238.015411 328.487793 A 165.000000 165.000000 0 0 1 201.512161 291.984528 L 335.000000 195.000000 " fill = "#a76fc6"></path><path d="M 201.512161 291.984528 A 165.000000 165.000000 0 0 1 178.075668 245.987778 L 335.000000 195.000000 " fill = "#9e70c9"></path><path d="M 178.075668 245.987778 A 165.000000 165.000000 0 0 1 170.000000 194.999939 L 335.000000 195.000000 " fill = "#9672cc"></path><path d="M 170.000000 194.999939 A 165.000000 165.000000 0 0 1 178.075699 144.012131 L 335.000000 195.000000 " fill = "#8e74cf"></path><path d="M 178.075699 144.012131 A 165.000000 165.000000 0 0 1 201.512253 98.015358 L 335.000000 195.000000 " fill = "#8575d2"></path><path d="M 201.512253 98.015358 A 165.000000 165.000000 0 0 1 238.015533 61.512127 L 335.000000 195.000000 " fill = "#7d77d5"></path><path d="M 238.015533 61.512127 A 165.000000 165.000000 0 0 1 284.012329 38.075634 L 335.000000 195.000000 " fill = "#7478d8"></path><path d="M 284.012329 38.075634 A 165.000000 165.000000 0 0 1 335.000153 30.000000 L 335.000000 195.000000 " fill = "#6c7adb"></path><path d="M 335.000153 30.000000 A 165.000000 165.000000 0 0 1 385.987915 38.075706 L 335.000000 195.000000 " fill = "#637bde"></path><path d="M 385.987915 38.075706 A 165.000000 165.000000 0 0 1 431.984680 61.512268 L 335.000000 195.000000 " fill = "#5b7de1"></path><path d="M 431.984680 61.512268 A 165.000000 165.000000 0 0 1 468.487885 98.015549 L 335.000000 195.000000 " fill = "#527ee4"></path><path d="M 468.487885 98.015549 A 165.000000 165.000000 0 0 1 491.924377 144.012360 L 335.000000 195.000000 " fill = "#4a80e7"></path><path d="M 491.924377 144.012360 A 165.000000 165.000000 0 0 1 500.000000 195.000107 L 335.000000 195.000000 " fill = "#4182ea"></path><g stroke="black"><g stroke="#646464"><line x1="497.968567" y1="220.811691" x2="617.968567" y2="220.811691"/><line x1="482.016083" y1="269.908447" x2="602.016113" y2="269.908447"/><line x1="451.672607" y1="311.672607" x2="571.672607" y2="311.672607"/><line x1="409.908417" y1="342.016083" x2="529.908447" y2="342.016083"/><line x1="360.811676" y1="357.968567" x2="480.811676" y2="357.968567"/><line x1="309.188324" y1="357.968567" x2="189.188324" y2="357.968567"/><line x1="260.091553" y1="342.016083" x2="140.091553" y2="342.016083"/><line x1="218.327347" y1="311.672577" x2="98.327347" y2="311.672577"/><line x1="187.983902" y1="269.908386" x2="67.983902" y2="269.908386"/><line x1="172.031418" y1="220.811646" x2="52.031418" y2="220.811646"/><line x1="172.031433" y1="169.188293" x2="52.031433" y2="169.188293"/><line x1="187.983948" y1="120.091530" x2="67.983948" y2="120.091530"/><line x1="218.327423" y1="78.327332" x2="98.327423" y2="78.327332"/><line x1="260.091614" y1="47.983902" x2="140.091614" y2="47.983902"/><line x1="309.188385" y1="32.031414" x2="189.188385" y2="32.031414"/><line x1="360.811768" y1="32.031437" x2="480.811768" y2="32.031437"/><line x1="409.908539" y1="47.983974" x2="529.908569" y2="47.983974"/><line x1="451.672699" y1="78.327477" x2="571.672729" y2="78.327477"/><line x1="482.016144" y1="120.091705" x2="602.016113" y2="120.091705"/><line x1="497.968597" y1="169.188492" x2="617.968628" y2="169.188492"/></g></g><g text-anchor = "end"><text x="617.968567" y="215.811691">label</text><text x="602.016113" y="264.908447">label</text><text x="571.672607" y="306.672607">label</text><text x="529.908447" y="337.016083">label</text><text x="480.811676" y="352.968567">label</text></g><text x="189.188324" y="352.968567">label</text><text x="140.091553" y="337.016083">label</text><text x="98.327347" y="306.672577">label</text><text x="67.983902" y="264.908386">label</text><text x="52.031418" y="215.811646">label</text><text x="52.031433" y="164.188293">label</text><text x="67.983948" y="115.091530">label</text><text x="98.327423" y="73.327332">label</text><text x="140.091614" y="42.983902">label</text><text x="189.188385" y="27.031414">label</text><g text-anchor = "end"><text x="480.811768" y="27.031437">label</text><text x="529.908569" y="42.983974">label</text><text x="571.672729" y="73.327477">label</text><text x="602.016113" y="115.091705">label</text><text x="617.968628" y="164.188492">label</text></g><g fill="#646464" dominant-baseline="hanging"><g text-anchor = "end"><text x="617.968567" y="225.811691">      5.0%</text><text x="602.016113" y="274.908447">      5.0%</text><text x="571.672607" y="316.672607">      5.0%</text><text x="529.908447" y="347.016083">      5.0%</text><text x="480.811676" y="362.968567">      5.0%</text></g><text x="189.188324" y="362.968567">      5.0%</text><text x="140.091553" y="347.016083">      5.0%</text><text x="98.327347" y="316.672577">      5.0%</text><text x="67.983902" y="274.908386">      5.0%</text><text x="52.031418" y="225.811646">      5.0%</text><text x="52.031433" y="174.188293">      5.0%</text><text x="67.983948" y="125.091530">      5.0%</text><text x="98.327423" y="83.327332">      5.0%</text><text x="140.091614" y="52.983902">      5.0%</text><text x="189.188385" y="37.031414">      5.0%</text><g text-anchor = "end"><text x="480.811768" y="37.031437">      5.0%</text><text x="529.908569" y="52.983974">      5.0%</text><text x="571.672729" y="83.327477">      5.0%</text><text x="602.016113" y="125.091705">      5.0%</text><text x="617.968628" y="174.188492">      5.0%</text></g></g></g></g></svg>