<?xml version="1.0" encoding="UTF-8" ?><svg xmlns="http://www.w3.org/2000/svg" version="1.1" viewBox="0 0 670.000000 390.000000" stroke-width="1"><defs><clipPath id="fuckyou"><rect x="15.000000" y="15.000000" width="640.000000" height="360.000000"/></clipPath></defs><g font-size="12"><g clip-path="url(#fuckyou)"><path d="M 500.000000 195.000000 A 165.000000 165.000000 0 0 1 347.945740 359.491364 L 335.000000 195.000000 " fill = "#d566b6"></path><path d="M 451.672607 311.672607 A 165.000000 165.000000 0 0 1 227.841080 320.466980 L 335.000000 195.000000 " fill = "#c06abd"></path><path d="M 335.000000 360.000000 A 165.000000 165.000000 0 0 1 170.508636 207.945740 L 335.000000 195.000000 " fill = "#ab6ec5"></path><path d="M 218.327377 311.672607 A 165.000000 165.000000 0 0 1 209.533035 87.841057 L 335.000000 195.000000 " fill = "#9672cc"></path><path d="M 170.000000 194.999985 A 165.000000 165.000000 0 0 1 322.054260 30.508640 L 335.000000 195.000000 " fill = "#8176d3"></path><path d="M 218.327377 78.327393 A 165.000000 165.000000 0 0 1 442.158966 69.533051 L 335.000000 195.000000 " fill = "#6c7adb"></path><path d="M 335.000000 30.000000 A 165.000000 165.000000 0 0 1 499.491364 182.054276 L 335.000000 195.000000 " fill = "#577ee2"></path><path d="M 451.672607 78.327362 A 165.000000 165.000000 0 0 1 460.467041 302.158875 L 335.000000 195.000000 " fill = "#4182ea"></path><path d="M 500.000000 195.000000 A 165.000000 165.000000 0 0 1 451.672607 311.672607 L 335.000000 195.000000 " fill = "#d566b6"></path><g stroke="black"><g stroke="#646464"><line x1="487.440125" y1="258.142761" x2="607.440125" y2="258.142761"/><line x1="398.142761" y1="347.440125" x2="518.142761" y2="347.440125"/><line x1="271.857239" y1="347.440125" x2="151.857239" y2="347.440125"/><line x1="182.559875" y1="258.142792" x2="62.559875" y2="258.142792"/><line x1="182.559875" y1="131.857239" x2="62.559875" y2="131.857239"/><line x1="271.857208" y1="42.559887" x2="151.857208" y2="42.559887"/><line x1="398.142792" y1="42.559887" x2="518.142822" y2="42.559887"/><line x1="487.440125" y1="131.857239" x2="607.440125" y2="131.857239"/></g></g><g text-anchor = "end"><text x="607.440125" y="253.142761">label</text><text x="518.142761" y="342.440125">label</text></g><text x="151.857239" y="342.440125">label</text><text x="62.559875" y="253.142792">label</text><text x="62.559875" y="126.857239">label</text><text x="151.857208" y="37.559887">label</text><g text-anchor = "end"><text x="518.142822" y="37.559887">label</text><text x="607.440125" y="126.857239">label</text></g><g fill="#646464" dominant-baseline="hanging"><g text-anchor = "end"><text x="607.440125" y="263.142761">     12.5%</text><text x="518.142761" y="352.440125">     12.5%</text></g><text x="151.857239" y="352.440125">     12.5%</text><text x="62.559875" y="263.142792">     12.5%</text><text x="62.559875" y="136.857239">     12.5%</text><text x="151.857208" y="47.559887">     12.5%</text><g text-anchor = "end"><text x="518.142822" y="47.559887">     12.5%</text><text x="607.440125" y="136.857239">     12.5%</text></g></g></g></g></svg>