<?xml version="1.0" encoding="UTF-8" ?><svg xmlns="http://www.w3.org/2000/svg" version="1.1" viewBox="0 0 660.000000 380.000000" stroke-width="1"><g font-size="12"><path d="M 500.000000 190.000000 A 170.000000 170.000000 0 0 1 491.679596 242.532898 L 330.000000 190.000000 " fill = "#e264b1"></path><path d="M 491.679596 242.532898 A 170.000000 170.000000 0 0 1 467.532898 289.923492 L 330.000000 190.000000 " fill = "#da66b4"></path><path d="M 467.532898 289.923492 A 170.000000 170.000000 0 0 1 429.923492 327.532898 L 330.000000 190.000000 " fill = "#d167b7"></path><path d="M 429.923492 327.532898 A 170.000000 170.000000 0 0 1 382.532898 351.679596 L 330.000000 190.000000 " fill = "#c969ba"></path><path d="M 382.532898 351.679596 A 170.000000 170.000000 0 0 1 330.000000 360.000000 L 330.000000 190.000000 " fill = "#c06abd"></path><path d="M 330.000000 360.000000 A 170.000000 170.000000 0 0 1 277.467102 351.679596 L 330.000000 190.000000 " fill = "#b86cc0"></path><path d="M 277.467102 351.679596 A 170.000000 170.000000 0 0 1 230.076477 327.532867 L 330.000000 190.000000 " fill = "#af6dc3"></path><path d="M 230.076477 327.532867 A 170.000000 170.000000 0 0 1 192.467087 289.923462 L 330.000000 190.000000 " fill = "#a76fc6"></path><path d="M 192.467087 289.923462 A 170.000000 170.000000 0 0 1 168.320389 242.532852 L 330.000000 190.000000 " fill = "#9e70c9"></path><path d="M 168.320389 242.532852 A 170.000000 170.000000 0 0 1 160.000000 189.999939 L 330.000000 190.000000 " fill = "#9672cc"></path><path d="M 160.000000 189.999939 A 170.000000 170.000000 0 0 1 168.320419 137.467041 L 330.000000 190.000000 " fill = "#8e74cf"></path><path d="M 168.320419 137.467041 A 170.000000 170.000000 0 0 1 192.467163 90.076424 L 330.000000 190.000000 " fill = "#8575d2"></path><path d="M 192.467163 90.076424 A 170.000000 170.000000 0 0 1 230.076599 52.467041 L 330.000000 190.000000 " fill = "#7d77d5"></path><path d="M 230.076599 52.467041 A 170.000000 170.000000 0 0 1 277.467255 28.320349 L 330.000000 190.000000 " fill = "#7478d8"></path><path d="M 277.467255 28.320349 A 170.000000 170.000000 0 0 1 330.000153 20.000000 L 330.000000 190.000000 " fill = "#6c7adb"></path><path d="M 330.000153 20.000000 A 170.000000 170.000000 0 0 1 382.532990 28.320425 L 330.000000 190.000000 " fill = "#637bde"></path><path d="M 382.532990 28.320425 A 170.000000 170.000000 0 0 1 429.923584 52.467186 L 330.000000 190.000000 " fill = "#5b7de1"></path><path d="M 429.923584 52.467186 A 170.000000 170.000000 0 0 1 467.532990 90.076630 L 330.000000 190.000000 " fill = "#527ee4"></path><path d="M 467.532990 90.076630 A 170.000000 170.000000 0 0 1 491.679657 137.467270 L 330.000000 190.000000 " fill = "#4a80e7"></path><path d="M 491.679657 137.467270 A 170.000000 170.000000 0 0 1 500.000000 190.000107 L 330.000000 190.000000 " fill = "#4182ea"></path><g stroke="black"><g stroke="#646464"><line x1="497.907013" y1="216.593857" x2="617.906982" y2="216.593857"/><line x1="481.471100" y1="267.178375" x2="601.471069" y2="267.178375"/><line x1="450.208160" y1="310.208160" x2="570.208130" y2="310.208160"/><line x1="407.178375" y1="341.471130" x2="527.178345" y2="341.471130"/><line x1="356.593842" y1="357.907013" x2="476.593842" y2="357.907013"/><line x1="303.406128" y1="357.907013" x2="183.406128" y2="357.907013"/><line x1="252.821594" y1="341.471100" x2="132.821594" y2="341.471100"/><line x1="209.791824" y1="310.208130" x2="89.791824" y2="310.208130"/><line x1="178.528870" y1="267.178314" x2="58.528870" y2="267.178314"/><line x1="162.092972" y1="216.593811" x2="42.092972" y2="216.593811"/><line x1="162.092987" y1="163.406113" x2="42.092987" y2="163.406113"/><line x1="178.528915" y1="112.821571" x2="58.528915" y2="112.821571"/><line x1="209.791901" y1="69.791801" x2="89.791901" y2="69.791801"/><line x1="252.821655" y1="38.528870" x2="132.821655" y2="38.528870"/><line x1="303.406219" y1="22.092970" x2="183.406219" y2="22.092970"/><line x1="356.593964" y1="22.092997" x2="476.593964" y2="22.092997"/><line x1="407.178497" y1="38.528942" x2="527.178467" y2="38.528942"/><line x1="450.208252" y1="69.791946" x2="570.208252" y2="69.791946"/><line x1="481.471191" y1="112.821754" x2="601.471191" y2="112.821754"/><line x1="497.907043" y1="163.406326" x2="617.907043" y2="163.406326"/></g></g><g text-anchor = "end"><text x="617.906982" y="211.593857">label</text><text x="601.471069" y="262.178375">label</text><text x="570.208130" y="305.208160">label</text><text x="527.178345" y="336.471130">label</text><text x="476.593842" y="352.907013">label</text></g><text x="183.406128" y="352.907013">label</text><text x="132.821594" y="336.471100">label</text><text x="89.791824" y="305.208130">label</text><text x="58.528870" y="262.178314">label</text><text x="42.092972" y="211.593811">label</text><text x="42.092987" y="158.406113">label</text><text x="58.528915" y="107.821571">label</text><text x="89.791901" y="64.791801">label</text><text x="132.821655" y="33.528870">label</text><text x="183.406219" y="17.092970">label</text><g text-anchor = "end"><text x="476.593964" y="17.092997">label</text><text x="527.178467" y="33.528942">label</text><text x="570.208252" y="64.791946">label</text><text x="601.471191" y="107.821754">label</text><text x="617.907043" y="158.406326">label</text></g><g fill="#646464" dominant-baseline="hanging"><g text-anchor = "end"><text x="617.906982" y="221.593857">      5.0%</text><text x="601.471069" y="272.178375">      5.0%</text><text x="570.208130" y="315.208160">      5.0%</text><text x="527.178345" y="346.471130">      5.0%</text><text x="476.593842" y="362.907013">      5.0%</text></g><text x="183.406128" y="362.907013">      5.0%</text><text x="132.821594" y="346.471100">      5.0%</text><text x="89.791824" y="315.208130">      5.0%</text><text x="58.528870" y="272.178314">      5.0%</text><text x="42.092972" y="221.593811">      5.0%</text><text x="42.092987" y="168.406113">      5.0%</text><text x="58.528915" y="117.821571">      5.0%</text><text x="89.791901" y="74.791801">      5.0%</text><text x="132.821655" y="43.528870">      5.0%</text><text x="183.406219" y="27.092970">      5.0%</text><g text-anchor = "end"><text x="476.593964" y="27.092997">      5.0%</text><text x="527.178467" y="43.528942">      5.0%</text><text x="570.208252" y="74.791946">      5.0%</text><text x="601.471191" y="117.821754">      5.0%</text><text x="617.907043" y="168.406326">      5.0%</text></g></g></g></svg>