<?xml version="1.0" encoding="UTF-8" ?><svg xmlns="http://www.w3.org/2000/svg" version="1.1" viewBox="0 0 420.000000 420.000000" stroke-width="2"><rect stroke="none" width="100%" height="100%" fill="#1e1e1e"/><g font-size="10" text-anchor="start" stroke-width="1" stroke ="#3c3c3c" fill="#3c3c3c"><circle cx="50.000000" cy="289.999992" r="2"/><circle cx="90.000000" cy="289.999992" r="2"/><circle cx="130.000000" cy="289.999992" r="2"/><circle cx="170.000000" cy="289.999992" r="2"/><circle cx="210.000000" cy="289.999992" r="2"/><circle cx="250.000000" cy="289.999992" r="2"/><circle cx="290.000000" cy="289.999992" r="2"/><circle cx="330.000000" cy="289.999992" r="2"/><circle cx="370.000000" cy="289.999992" r="2"/><circle cx="130.000008" cy="50.000000" r="2"/><circle cx="130.000008" cy="90.000000" r="2"/><circle cx="130.000008" cy="130.000000" r="2"/><circle cx="130.000008" cy="170.000000" r="2"/><circle cx="130.000008" cy="210.000000" r="2"/><circle cx="130.000008" cy="250.000000" r="2"/><circle cx="130.000008" cy="290.000000" r="2"/><circle cx="130.000008" cy="330.000000" r="2"/><circle cx="130.000008" cy="370.000000" r="2"/></g><polyline fill="none" points="130.000008, 10.000000 130.000008, 410.000000 " stroke = "#3c3c3c"/><polyline fill="none" points="10.000000, 289.999992 410.000000, 289.999992 " stroke = "#3c3c3c"/><polyline fill="none" stroke="#ff2d28" points=" 0.000008, 120.999992  5.000008, 133.750000 10.000008, 146.000000 15.000008, 157.750000 20.000008, 169.000000 25.000008, 179.750000 30.000008, 190.000000 35.000008, 199.750000 40.000008, 209.000000 45.000008, 217.750000 50.000008, 226.000000 55.000008, 233.750000 60.000008, 241.000000 65.000008, 247.750000 70.000008, 254.000000 75.000008, 259.750000 80.000008, 265.000000 85.000008, 269.750000 90.000008, 274.000000 95.000008, 277.750000 100.000008, 281.000000 105.000008, 283.750000 110.000008, 286.000000 115.000008, 287.750000 120.000008, 289.000000 125.000008, 289.750000 130.000000, 290.000000 135.000000, 289.750000 140.000000, 289.000000 145.000000, 287.750000 150.000000, 286.000000 155.000000, 283.750000 160.000000, 281.000000 165.000000, 277.750000 170.000000, 274.000000 175.000000, 269.750000 180.000000, 265.000000 185.000000, 259.750000 190.000000, 254.000000 195.000000, 247.750000 200.000000, 241.000000 205.000000, 233.750000 210.000000, 226.000000 215.000000, 217.750000 220.000000, 209.000000 225.000000, 199.750000 230.000000, 190.000000 235.000000, 179.750000 240.000000, 169.000000 245.000000, 157.750000 250.000000, 146.000000 255.000000, 133.750000 260.000000, 120.999992 265.000000, 107.749992 270.000000, 93.999992 275.000000, 79.749992 280.000000, 64.999992 285.000000, 49.749992 290.000000, 33.999992 295.000000, 17.749992 300.000000,  0.999992 "/><g font-size="10" text-anchor="start" stroke-width="1" stroke ="#dcdc28" fill="#dcdc28"><circle cx="30.000008" cy="390.000000" r="1"/><circle cx="35.000008" cy="380.250000" r="1"/><circle cx="40.000008" cy="371.000000" r="1"/><circle cx="45.000008" cy="362.250000" r="1"/><circle cx="50.000008" cy="354.000000" r="1"/><circle cx="55.000008" cy="346.250000" r="1"/><circle cx="60.000008" cy="339.000000" r="1"/><circle cx="65.000008" cy="332.250000" r="1"/><circle cx="70.000008" cy="326.000000" r="1"/><circle cx="75.000008" cy="320.250000" r="1"/><circle cx="80.000008" cy="315.000000" r="1"/><circle cx="85.000008" cy="310.250000" r="1"/><circle cx="90.000008" cy="306.000000" r="1"/><circle cx="95.000008" cy="302.250000" r="1"/><circle cx="100.000008" cy="299.000000" r="1"/><circle cx="105.000008" cy="296.250000" r="1"/><circle cx="110.000008" cy="294.000000" r="1"/><circle cx="115.000008" cy="292.250000" r="1"/><circle cx="120.000008" cy="291.000000" r="1"/><circle cx="125.000008" cy="290.250000" r="1"/><circle cx="130.000000" cy="290.000000" r="1"/><circle cx="135.000000" cy="290.250000" r="1"/><circle cx="140.000000" cy="291.000000" r="1"/><circle cx="145.000000" cy="292.250000" r="1"/><circle cx="150.000000" cy="294.000000" r="1"/><circle cx="155.000000" cy="296.250000" r="1"/><circle cx="160.000000" cy="299.000000" r="1"/><circle cx="165.000000" cy="302.250000" r="1"/><circle cx="170.000000" cy="306.000000" r="1"/><circle cx="175.000000" cy="310.250000" r="1"/><circle cx="180.000000" cy="315.000000" r="1"/><circle cx="185.000000" cy="320.250000" r="1"/><circle cx="190.000000" cy="326.000000" r="1"/><circle cx="195.000000" cy="332.250000" r="1"/><circle cx="200.000000" cy="339.000000" r="1"/><circle cx="205.000000" cy="346.250000" r="1"/><circle cx="210.000000" cy="354.000000" r="1"/><circle cx="215.000000" cy="362.250000" r="1"/><circle cx="220.000000" cy="371.000000" r="1"/><circle cx="225.000000" cy="380.250000" r="1"/><circle cx="230.000000" cy="390.000000" r="1"/></g></svg>