<?xml version="1.0" encoding="UTF-8" ?><!--THIS DOCUMENT WAS GENERATED WITH CGLIB CREATED BY FULLNITROUS RIGHTS RESERVED TO VOIDZEHN HTTPS://MDPP.XYZ HTTPS://VOIDZEHN.COM HTTPS://CGLIB.XYZ HTTPS://FULLNITROUS.COM--><svg xmlns="http://www.w3.org/2000/svg" style ="font-family: sans-serif;" version="1.1" viewBox="0 0 740.000000 460.000000" stroke-width="1"><defs><clipPath id="fuckyou"><rect x="50.000000" y="50.000000" width="640.000000" height="360.000000"/></clipPath></defs><g stroke = "#dcdcdc"><line x1="50.000000" y1="410.000000" x2="690.000000" y2="410.000000"/><line x1="50.000000" y1="338.000000" x2="690.000000" y2="338.000000"/><line x1="50.000000" y1="266.000000" x2="690.000000" y2="266.000000"/><line x1="50.000000" y1="194.000000" x2="690.000000" y2="194.000000"/><line x1="50.000000" y1="122.000000" x2="690.000000" y2="122.000000"/><line x1="50.000000" y1="50.000000" x2="690.000000" y2="50.000000"/></g><g text-anchor = "end" font-size="12"><text x="45.000000" y="410.000000">  -100.00</text><text x="45.000000" y="338.000000">   -60.00</text><text x="45.000000" y="266.000000">   -20.00</text><text x="45.000000" y="194.000000">    20.00</text><text x="45.000000" y="122.000000">    60.00</text><text x="45.000000" y="50.000000">   100.00</text></g><g stroke = "#646464"><line x1="50.000000" y1="50.000000" x2="50.000000" y2="410.000000"/><line x1="50.000000" y1="230.000000" x2="690.000000" y2="230.000000"/></g><g text-anchor = "middle" font-size="12"><g clip-path="url(#fuckyou)"><rect fill="#df65b2" x="50.000000" y="140.000000" width="33.333332" height="90.000000"/><text x="66.666664" y="135.000000">     50.0</text><rect fill="#d467b6" x="93.333332" y="158.000000" width="33.333332" height="72.000000"/><text x="110.000000" y="153.000000">     40.0</text><rect fill="#c969ba" x="136.666664" y="175.999996" width="33.333332" height="54.000004"/><text x="153.333328" y="170.999996">     30.0</text><rect fill="#bd6bbe" x="180.000000" y="194.000000" width="33.333332" height="36.000000"/><text x="196.666672" y="189.000000">     20.0</text><rect fill="#b26dc2" x="223.333328" y="212.000000" width="33.333332" height="18.000000"/><text x="240.000000" y="207.000000">     10.0</text><rect fill="#a76fc6" x="266.666656" y="230.000000" width="33.333332" height="-0.000000"/><text x="283.333313" y="245.000000">      0.0</text><rect fill="#9c71ca" x="310.000000" y="230.000000" width="33.333332" height="18.000000"/><text x="326.666656" y="263.000000">    -10.0</text><rect fill="#9073ce" x="353.333313" y="230.000000" width="33.333332" height="36.000000"/><text x="369.999969" y="281.000000">    -20.0</text><rect fill="#8575d2" x="396.666656" y="230.000000" width="33.333332" height="54.000004"/><text x="413.333313" y="299.000000">    -30.0</text><rect fill="#7a77d6" x="440.000000" y="230.000000" width="33.333332" height="72.000000"/><text x="456.666656" y="317.000000">    -40.0</text><rect fill="#6f79da" x="483.333313" y="230.000000" width="33.333332" height="90.000000"/><text x="499.999969" y="335.000000">    -50.0</text><rect fill="#637bde" x="526.666656" y="230.000000" width="33.333332" height="108.000008"/><text x="543.333313" y="353.000000">    -60.0</text><rect fill="#587de2" x="570.000000" y="230.000000" width="33.333332" height="126.000000"/><text x="586.666687" y="371.000000">    -70.0</text><rect fill="#4d7fe6" x="613.333313" y="230.000000" width="33.333332" height="144.000000"/><text x="630.000000" y="389.000000">    -80.0</text><rect fill="#4182ea" x="656.666626" y="230.000000" width="33.333332" height="162.000000"/><text x="673.333313" y="407.000000">    -90.0</text></g><g dominant-baseline="hanging"><text x="66.666664" y="235.000000">Label</text><text x="110.000000" y="235.000000">Label</text><text x="153.333328" y="235.000000">Label</text><text x="196.666672" y="235.000000">Label</text><text x="240.000000" y="235.000000">Label</text></g><text x="283.333313" y="225.000000">Label</text><text x="326.666656" y="225.000000">Label</text><text x="369.999969" y="225.000000">Label</text><text x="413.333313" y="225.000000">Label</text><text x="456.666656" y="225.000000">Label</text><text x="499.999969" y="225.000000">Label</text><text x="543.333313" y="225.000000">Label</text><text x="586.666687" y="225.000000">Label</text><text x="630.000000" y="225.000000">Label</text><text x="673.333313" y="225.000000">Label</text></g></svg>