<?xml version="1.0" encoding="UTF-8" ?><!--THIS DOCUMENT WAS GENERATED WITH CGLIB CREATED BY FULLNITROUS RIGHTS RESERVED TO VOIDZEHN HTTPS://MDPP.XYZ HTTPS://VOIDZEHN.COM HTTPS://CGLIB.XYZ HTTPS://FULLNITROUS.COM--><svg xmlns="http://www.w3.org/2000/svg" style ="font-family: sans-serif;" version="1.1" viewBox="0 0 740.000000 460.000000" stroke-width="1"><defs><clipPath id="fuckyou"><rect x="50.000000" y="50.000000" width="640.000000" height="360.000000"/></clipPath></defs><g stroke = "#dcdcdc"><line x1="50.000000" y1="410.000000" x2="690.000000" y2="410.000000"/><line x1="50.000000" y1="338.000000" x2="690.000000" y2="338.000000"/><line x1="50.000000" y1="266.000000" x2="690.000000" y2="266.000000"/><line x1="50.000000" y1="194.000000" x2="690.000000" y2="194.000000"/><line x1="50.000000" y1="122.000000" x2="690.000000" y2="122.000000"/><line x1="50.000000" y1="50.000000" x2="690.000000" y2="50.000000"/></g><g text-anchor = "end" font-size="12"><text x="45.000000" y="410.000000">  -100.00</text><text x="45.000000" y="338.000000">   -60.00</text><text x="45.000000" y="266.000000">   -20.00</text><text x="45.000000" y="194.000000">    20.00</text><text x="45.000000" y="122.000000">    60.00</text><text x="45.000000" y="50.000000">   100.00</text></g><g stroke = "#646464"><line x1="50.000000" y1="50.000000" x2="50.000000" y2="410.000000"/><line x1="50.000000" y1="230.000000" x2="690.000000" y2="230.000000"/></g><g text-anchor = "middle" font-size="12"><g clip-path="url(#fuckyou)"><rect fill="#df65b2" x="50.000000" y="140.000000" width="38.000000" height="90.000000"/><text x="69.000000" y="135.000000">     50.0</text><rect fill="#d467b6" x="93.000000" y="150.800003" width="38.000000" height="79.199997"/><text x="112.000000" y="145.800003">     44.0</text><rect fill="#c969ba" x="136.000000" y="161.599998" width="38.000000" height="68.400002"/><text x="155.000000" y="156.599998">     38.0</text><rect fill="#bd6bbe" x="179.000000" y="172.400002" width="38.000000" height="57.599998"/><text x="198.000000" y="167.400002">     32.0</text><rect fill="#b26dc2" x="222.000000" y="183.200001" width="38.000000" height="46.799999"/><text x="241.000000" y="178.200001">     26.0</text><rect fill="#a76fc6" x="265.000000" y="194.000000" width="38.000000" height="36.000000"/><text x="284.000000" y="189.000000">     20.0</text><rect fill="#9c71ca" x="308.000000" y="204.799999" width="38.000000" height="25.200001"/><text x="327.000000" y="199.799999">     14.0</text><rect fill="#9073ce" x="351.000000" y="215.600000" width="38.000000" height="14.400000"/><text x="370.000000" y="210.600000">      8.0</text><rect fill="#8575d2" x="394.000000" y="226.400000" width="38.000000" height=" 3.600000"/><text x="413.000000" y="221.400000">      2.0</text><rect fill="#7a77d6" x="437.000000" y="230.000000" width="38.000000" height=" 7.200000"/><text x="456.000000" y="252.200001">     -4.0</text><rect fill="#6f79da" x="480.000000" y="230.000000" width="38.000000" height="18.000000"/><text x="499.000000" y="263.000000">    -10.0</text><rect fill="#637bde" x="523.000000" y="230.000000" width="38.000000" height="28.799999"/><text x="542.000000" y="273.799999">    -16.0</text><rect fill="#587de2" x="566.000000" y="230.000000" width="38.000000" height="39.599998"/><text x="585.000000" y="284.599998">    -22.0</text><rect fill="#4d7fe6" x="609.000000" y="230.000000" width="38.000000" height="50.400002"/><text x="628.000000" y="295.400002">    -28.0</text><rect fill="#4182ea" x="652.000000" y="230.000000" width="38.000000" height="61.200001"/><text x="671.000000" y="306.199997">    -34.0</text></g><g dominant-baseline="hanging"><text x="69.000000" y="235.000000">Label</text><text x="112.000000" y="235.000000">Label</text><text x="155.000000" y="235.000000">Label</text><text x="198.000000" y="235.000000">Label</text><text x="241.000000" y="235.000000">Label</text><text x="284.000000" y="235.000000">Label</text><text x="327.000000" y="235.000000">Label</text><text x="370.000000" y="235.000000">Label</text><text x="413.000000" y="235.000000">Label</text></g><g ><text x="456.000000" y="225.000000">Label</text><text x="499.000000" y="225.000000">Label</text><text x="542.000000" y="225.000000">Label</text><text x="585.000000" y="225.000000">Label</text><text x="628.000000" y="225.000000">Label</text><text x="671.000000" y="225.000000">Label</text></g></g></svg>