<?xml version="1.0" encoding="UTF-8" ?><!--THIS DOCUMENT WAS GENERATED WITH CGLIB CREATED BY FULLNITROUS RIGHTS RESERVED TO VOIDZEHN HTTPS://MDPP.XYZ HTTPS://VOIDZEHN.COM HTTPS://CGLIB.XYZ HTTPS://FULLNITROUS.COM--><svg xmlns="http://www.w3.org/2000/svg" style ="font-family: sans-serif;" version="1.1" viewBox="0 0 680.000000 400.000000" stroke-width="1"><defs><clipPath id="fuckyou"><rect x="20.000000" y="20.000000" width="640.000000" height="360.000000"/></clipPath></defs><g font-size="12"><g clip-path="url(#fuckyou)"><path d="M 500.000000 200.000000 A 160.000000 160.000000 0 0 1 434.045624 329.442719 L 402.697083 286.295135 A 106.666664 106.666664 0 0 0 446.666656 200.000000" fill="#c06abd"></path><path d="M 469.442719 294.045654 A 160.000000 160.000000 0 0 1 187.830963 249.442719 L 238.553970 232.961823 A 106.666664 106.666664 0 0 0 426.295135 262.697083" fill="#9672cc"></path><path d="M 389.442719 352.169037 A 160.000000 160.000000 0 1 1 434.045624 70.557259 L 402.697083 113.704842 A 106.666664 106.666664 0 1 0 372.961823 301.446014" fill="#6c7adb"></path><path d="M 290.557251 47.830963 A 160.000000 160.000000 0 0 1 492.169037 249.442688 L 441.446045 232.961792 A 106.666664 106.666664 0 0 0 307.038177 98.553978" fill="#4182ea"></path><path d="M 500.000000 200.000000 A 160.000000 160.000000 0 0 1 469.442719 294.045654 L 426.295135 262.697083 A 106.666664 106.666664 0 0 0 446.666656 200.000000" fill="#c06abd"></path><g stroke="black"><g stroke="#646464"><line x1="492.169037" y1="249.442719" x2="612.169067" y2="249.442719"/><line x1="434.045624" y1="329.442719" x2="554.045654" y2="329.442719"/><line x1="187.830963" y1="249.442719" x2="67.830963" y2="249.442719"/><line x1="434.045685" y1="70.557304" x2="554.045654" y2="70.557304"/></g></g><g text-anchor="end"><text x="612.169067" y="244.442719">Label</text><text x="554.045654" y="324.442719">Label</text></g><g ><text x="67.830963" y="244.442719">Label</text></g><g text-anchor="end"><text x="554.045654" y="65.557304">Label</text></g><g fill="#646464" dominant-baseline="hanging"><g text-anchor="end"><text x="612.169067" y="254.442719">     10.0%</text><text x="554.045654" y="334.442719">     10.0%</text></g><g ><text x="67.830963" y="254.442719">     50.0%</text></g><g text-anchor="end"><text x="554.045654" y="75.557304">     30.0%</text></g></g></g><g text-anchor="middle" font-size="50"><text x="340.000000" y="200.000000">Label</text><g dominant-baseline="hanging" font-size="20"><text x="340.000000" y="205.000000">Label</text></g></g></g></svg>