<?xml version="1.0" encoding="UTF-8" ?><!--THIS DOCUMENT WAS GENERATED WITH CGLIB CREATED BY FULLNITROUS RIGHTS RESERVED TO VOIDZEHN HTTPS://MDPP.XYZ HTTPS://VOIDZEHN.COM HTTPS://CGLIB.XYZ HTTPS://FULLNITROUS.COM--><svg xmlns="http://www.w3.org/2000/svg" style ="font-family: sans-serif;" version="1.1" viewBox="0 0 680.000000 400.000000" stroke-width="1"><defs><clipPath id="fuckyou"><rect x="20.000000" y="20.000000" width="640.000000" height="360.000000"/></clipPath></defs><circle cx="340.000000" cy="200.000000" r=" 0.000000"/><g font-size="12"><g clip-path="url(#fuckyou)"><path d="M 500.000000 200.000000 A 160.000000 160.000000 0 0 1 340.000000 360.000000 L 340.000000 200.000000 " fill= "#ce68b8"></path><path d="M 420.000000 338.564056 A 160.000000 160.000000 0 0 1 201.435913 279.999969 L 340.000000 200.000000 " fill= "#b26dc2"></path><path d="M 260.000000 338.564056 A 160.000000 160.000000 0 0 1 201.435959 119.999969 L 340.000000 200.000000 " fill= "#9672cc"></path><path d="M 180.000000 199.999985 A 160.000000 160.000000 0 0 1 340.000000 40.000000 L 340.000000 200.000000 " fill= "#7a77d6"></path><path d="M 260.000031 61.435925 A 160.000000 160.000000 0 0 1 478.564087 120.000038 L 340.000000 200.000000 " fill= "#5e7ce0"></path><path d="M 420.000061 61.435966 A 160.000000 160.000000 0 0 1 478.564056 280.000000 L 340.000000 200.000000 " fill= "#4182ea"></path><path d="M 500.000000 200.000000 A 160.000000 160.000000 0 0 1 420.000000 338.564056 L 340.000000 200.000000 " fill= "#ce68b8"></path><g stroke="#646464"><line x1="478.564056" y1="280.000000" x2="598.564087" y2="280.000000"/><line x1="340.000000" y1="360.000000" x2="220.000000" y2="360.000000"/><line x1="201.435913" y1="279.999969" x2="81.435913" y2="279.999969"/><line x1="201.435928" y1="120.000000" x2="81.435928" y2="120.000000"/><line x1="340.000000" y1="40.000000" x2="220.000000" y2="40.000000"/><line x1="478.564087" y1="120.000038" x2="598.564087" y2="120.000038"/></g><g text-anchor="end"><text x="598.564087" y="275.000000">Label</text><text x="220.000000" y="355.000000">Label</text></g><g ><text x="81.435913" y="274.999969">Label</text><text x="81.435928" y="115.000000">Label</text><text x="220.000000" y="35.000000">Label</text></g><g text-anchor="end"><text x="598.564087" y="115.000038">Label</text></g><g fill="#646464" dominant-baseline="hanging"><g text-anchor="end"><text x="598.564087" y="285.000000">     16.7%</text><text x="220.000000" y="365.000000">     16.7%</text></g><g ><text x="81.435913" y="284.999969">     16.7%</text><text x="81.435928" y="125.000000">     16.7%</text><text x="220.000000" y="45.000000">     16.7%</text></g><g text-anchor="end"><text x="598.564087" y="125.000038">     16.7%</text></g></g></g></g></svg>